<?xml version="1.0" encoding="UTF-8"?> <svg xmlns="http://www.w3.org/2000/svg" xmlns:xlink="http://www.w3.org/1999/xlink" viewBox="0 0 720 315"><defs><style>.cls-1{fill:#a093de;}.cls-2{fill:#fff;}.cls-3{fill:#241a3d;}.cls-4{fill:#8661c9;}.cls-5{fill:#e9e7f2;}.cls-6{clip-path:url(#clip-path);}.cls-7{fill:#7461a7;}.cls-8{fill:#f1a088;}.cls-9{fill:#3f3374;}.cls-10{fill:#f5b590;}.cls-11{fill:#e2dff2;}.cls-12{fill:#d4cef2;}.cls-13{fill:#c8c3d8;}.cls-14{fill:#b3afc2;}.cls-15{clip-path:url(#clip-path-2);}.cls-16{fill:#e0dcf2;}.cls-17{fill:#402f6d;}.cls-18{fill:#f6bb96;}.cls-19{fill:#e8e8e8;}.cls-20{fill:#7a5ca2;}.cls-21{fill:url(#linear-gradient);}.cls-22{fill:#231044;}.cls-23{fill:#f2a68e;}.cls-24{fill:#93c01f;}.cls-25{fill:#e94f94;}.cls-26{fill:#9a65b8;}.cls-27{fill:#e6f4fa;}.cls-28{fill:#e2f2fa;}.cls-29{fill:#f49e32;}.cls-30{fill:#c4accf;}.cls-31{fill:#baa4c4;}.cls-32{fill:#ab98b5;}.cls-33{fill:#cbc0df;}.cls-34{fill:#f7b032;}.cls-35{fill:#b698bb;}.cls-36{fill:#e0d9ed;}.cls-37{fill:#f19031;}.cls-38{fill:#ed7530;}.cls-39{fill:#ee7c24;}.cls-40{fill:none;}.cls-41{fill:#f5c806;}.cls-42{fill:#ed4a99;}.cls-43{fill:#e9e9ea;}.cls-44{fill:#d94a8b;}.cls-45{fill:#ccc1e0;}.cls-46{fill:#beabd3;}.cls-47{fill:#eb8500;}.cls-48{fill:#e20613;}.cls-49{fill:#ededee;}.cls-50{fill:#fffcfc;}.cls-51{fill:#cabfc4;}.cls-52{fill:#382760;}.cls-53{fill:#ede8f9;}.cls-54{fill:#d3c2f9;}.cls-55{fill:#9788bf;}.cls-56{fill:#d9eff4;}.cls-57{opacity:0.19;}.cls-58{fill:#474445;}.cls-59{fill:#dbdbda;}.cls-60{opacity:0.08;}.cls-61{fill:#e1daeb;}.cls-62{fill:#3f2f6d;}.cls-63{fill:#7a5da2;}.cls-64{fill:#f5ba95;}.cls-65{fill:#5b4080;}.cls-66{fill:#f2c72b;}</style><clipPath id="clip-path"><circle class="cls-1" cx="151.6" cy="122.97" r="32.78"></circle></clipPath><clipPath id="clip-path-2"><circle class="cls-1" cx="293.32" cy="108.76" r="38.4" transform="translate(120.08 369.25) rotate(-76.72)"></circle></clipPath><linearGradient id="linear-gradient" x1="47.65" y1="145.12" x2="80.94" y2="184.13" gradientTransform="translate(-11.14)" gradientUnits="userSpaceOnUse"><stop offset="0" stop-color="#ac94c6"></stop><stop offset="0.03" stop-color="#b09aca"></stop><stop offset="0.16" stop-color="#bdacd4"></stop><stop offset="0.31" stop-color="#c6b8db"></stop><stop offset="0.51" stop-color="#cbbfdf"></stop><stop offset="1" stop-color="#ccc1e0"></stop></linearGradient></defs><g id="Layer_5" data-name="Layer 5"><rect class="cls-2" x="96.18" y="59.9" width="110.85" height="220.77" rx="7.85"></rect><path class="cls-3" d="M196.66,284.5H106.54a14.21,14.21,0,0,1-14.19-14.19v-200a14.21,14.21,0,0,1,14.19-14.19h90.12a14.2,14.2,0,0,1,14.19,14.19v200A14.21,14.21,0,0,1,196.66,284.5Zm-43.29-7.65h43.29a6.55,6.55,0,0,0,6.54-6.54v-200a6.54,6.54,0,0,0-6.54-6.54H106.54A6.55,6.55,0,0,0,100,70.27v200a6.56,6.56,0,0,0,6.54,6.54h46.83"></path><path class="cls-3" d="M124.24,63.73H179a0,0,0,0,1,0,0v5.4a3.37,3.37,0,0,1-3.37,3.37h-48a3.37,3.37,0,0,1-3.37-3.37v-5.4A0,0,0,0,1,124.24,63.73Z"></path><circle class="cls-4" cx="126.9" cy="251.36" r="13.85"></circle><path class="cls-2" d="M132.5,250c-2.39-1.1-7.36-1.71-10.72-.24a3.35,3.35,0,0,0-2,3.17h0a1,1,0,0,0,1.12,1l2.1-.24a1,1,0,0,0,.85-.73l.22-.79a.57.57,0,0,1,.44-.39l.8-.12a9.85,9.85,0,0,1,3.16,0l.8.12a.57.57,0,0,1,.44.39l.22.79a1,1,0,0,0,.86.73l2.09.24a1,1,0,0,0,1.12-1l0-.43A2.68,2.68,0,0,0,132.5,250Z"></path><circle class="cls-4" cx="174.55" cy="251.36" r="13.85"></circle><path class="cls-2" d="M183.44,250.28c0,3.5-4,6.34-8.89,6.34s-8.89-2.84-8.89-6.34,4-6.35,8.89-6.35S183.44,246.77,183.44,250.28Z"></path><polygon class="cls-2" points="175.49 255.8 181.01 258.83 180.34 253.93 175.49 255.8"></polygon><path class="cls-5" d="M188.78,180.49H114.43a1.75,1.75,0,0,1-1.75-1.75h0a1.75,1.75,0,0,1,1.75-1.75h74.35a1.75,1.75,0,0,1,1.74,1.75h0A1.74,1.74,0,0,1,188.78,180.49Z"></path><path class="cls-5" d="M188.78,190.4H114.43a1.74,1.74,0,0,1-1.75-1.74h0a1.75,1.75,0,0,1,1.75-1.75h74.35a1.74,1.74,0,0,1,1.74,1.75h0A1.74,1.74,0,0,1,188.78,190.4Z"></path><path class="cls-5" d="M188.78,200.32H114.43a1.75,1.75,0,0,1-1.75-1.75h0a1.75,1.75,0,0,1,1.75-1.75h74.35a1.75,1.75,0,0,1,1.74,1.75h0A1.74,1.74,0,0,1,188.78,200.32Z"></path><rect class="cls-5" x="112.68" y="206.74" width="43.24" height="3.5" rx="0.99"></rect><circle class="cls-1" cx="151.6" cy="122.97" r="32.78"></circle><g class="cls-6"><path class="cls-7" d="M136.78,169.27h0c0-.06,0-.11,0-.14S136.77,169.1,136.78,169.27Z"></path><path class="cls-3" d="M143.79,120.22a17.29,17.29,0,0,1-1.84-2,3.62,3.62,0,0,0,.93,0A3.54,3.54,0,0,1,143.79,120.22Z"></path><path class="cls-8" d="M151.22,124.68a5.5,5.5,0,0,1-3.06-1.88,9.34,9.34,0,0,0,5.81,1.4,10.29,10.29,0,0,0,2.47-.28c0,.09,0,.17-.05.25s-.06.41-.08.61C155.52,125.18,152.5,125,151.22,124.68Z"></path><path class="cls-3" d="M148.37,104.68c-.57,2.9-2.56,3.46-3.15,4.29a8,8,0,0,0-1.18,4.24c0,.33-.07.72-.38.86a.65.65,0,0,1-.67-.16c-.19-.17-.31-.39-.48-.57a2.13,2.13,0,0,0-2.6-.39,12.13,12.13,0,0,1,.22-9.6c.16-.34.73-1.38,1.54-1.56A5.27,5.27,0,0,1,146,98.06c3.32-.48,6.69.08,10,.09a6.9,6.9,0,0,0,3.06-.53,2.26,2.26,0,0,1,1-.35,1.51,1.51,0,0,1,1.1.75,4.47,4.47,0,0,1,.87,2.68,3.66,3.66,0,0,1-1.13,2.56,3.32,3.32,0,0,1-1,.65,5,5,0,0,1-1.37.38,13.38,13.38,0,0,1-2.61,0l-4.86-.27a6,6,0,0,0-1.75.08A2.23,2.23,0,0,0,148.37,104.68Z"></path><path class="cls-9" d="M156.06,151.91l-.11-1.76-1.28-19.72,1-2.17-2.1-1.35-1.93,1.35,1,2.17-1.22,20.07-.18,2.93a1.93,1.93,0,0,0,1.21.52,3.43,3.43,0,0,0,2.13-.95q.75-.57,1.47-1.05Z"></path><path class="cls-10" d="M147.12,122.87H147a4,4,0,0,0-1.38-1.19,16.15,16.15,0,0,1-1.84-1.46,3.54,3.54,0,0,0-.91-2,3.62,3.62,0,0,1-.93,0,4,4,0,0,1-1.58-.45,3.18,3.18,0,0,1-1.65-2.28,2.57,2.57,0,0,1,1.13-2.52l.06,0a2.13,2.13,0,0,1,2.6.39c.17.18.29.4.48.57a.65.65,0,0,0,.67.16c.31-.14.36-.53.38-.86a8,8,0,0,1,1.18-4.24c.59-.83,2.58-1.39,3.15-4.29a2.23,2.23,0,0,1,1-.54,6,6,0,0,1,1.75-.08l4.86.27a13.38,13.38,0,0,0,2.61,0,5,5,0,0,0,1.37-.38c.77,2,.73,4.28.88,6.46a37.93,37.93,0,0,1,.27,6.11,12.48,12.48,0,0,1-1.28,4.47,6.09,6.09,0,0,1-1.7,2.19,4.71,4.71,0,0,1-1.72.78h0a10.29,10.29,0,0,1-2.47.28,9.34,9.34,0,0,1-5.81-1.4,5.5,5.5,0,0,0,3.06,1.88c1.28.34,4.3.5,5.09.1a11.35,11.35,0,0,0-.1,1.16l-8.75-.29A5.25,5.25,0,0,0,147.12,122.87Z"></path><path class="cls-11" d="M157.56,129.38a3.5,3.5,0,0,1-1.3-2.4,6.09,6.09,0,0,1,0-1l-8.75-.29a7.87,7.87,0,0,1-.2,1.18c-.65,1.91-6.45,2.9-10.87,6.73-.93,1.05-2.6,2.56-2.69,5.44h0v30.09l3.08,0a.72.72,0,0,0,0,.13s32.27-6.81,32.74,0c-.47-6.81-3.52-31.63-4.54-34.26C163.6,131.47,160,131.06,157.56,129.38ZM154.62,153a3.43,3.43,0,0,1-2.13.95,1.93,1.93,0,0,1-1.21-.52l.18-2.93h0l1.22-20.07-1-2.17,1.93-1.35,2.1,1.35-1,2.17L156,150.15l.11,1.76,0,0Q155.37,152.43,154.62,153Z"></path><polygon class="cls-9" points="151.28 153.43 154.33 158.17 156.41 153.52 155.13 137.58 154.16 150.21 151.28 153.43"></polygon></g><path class="cls-3" d="M234.38,23.17H572.91a14.41,14.41,0,0,1,14.41,14.41V268.84a0,0,0,0,1,0,0H220a0,0,0,0,1,0,0V37.58A14.41,14.41,0,0,1,234.38,23.17Z"></path><rect class="cls-12" x="237.54" y="43.19" width="332.22" height="210.72"></rect><path class="cls-13" d="M618,261.6H198.17a22.19,22.19,0,0,0,7.06,16.11H610.9A22.2,22.2,0,0,0,618,261.6Z"></path><path class="cls-14" d="M263.71,277.71H205.23a25.82,25.82,0,0,0,17.83,7h370a25.79,25.79,0,0,0,17.82-7H263.71"></path><path class="cls-14" d="M372.2,261.59h71.74a0,0,0,0,1,0,0v3a5.67,5.67,0,0,1-5.67,5.67h-60.4a5.67,5.67,0,0,1-5.67-5.67v-3A0,0,0,0,1,372.2,261.59Z"></path><circle class="cls-1" cx="293.32" cy="108.76" r="38.4" transform="translate(120.08 369.25) rotate(-76.72)"></circle><g class="cls-15"><path class="cls-7" d="M276,163h0v-.16C275.94,162.74,275.94,162.8,276,163Z"></path><path class="cls-3" d="M284.17,105.54a20.7,20.7,0,0,1-2.16-2.33,5,5,0,0,0,1.1,0A4.16,4.16,0,0,1,284.17,105.54Z"></path><path class="cls-8" d="M292.87,110.77a6.49,6.49,0,0,1-3.58-2.21c1.87,1.41,4.43,1.69,6.8,1.65a12.77,12.77,0,0,0,2.9-.33c0,.1,0,.2-.06.29l-.09.72C297.92,111.35,294.38,111.16,292.87,110.77Z"></path><path class="cls-3" d="M289.54,87.34c-.67,3.39-3,4-3.69,5a9.27,9.27,0,0,0-1.38,5c0,.39-.09.85-.45,1a.77.77,0,0,1-.79-.19c-.21-.2-.36-.45-.55-.67a2.54,2.54,0,0,0-3.06-.46,14.19,14.19,0,0,1,.27-11.23c.18-.41.85-1.62,1.79-1.83a6.18,6.18,0,0,1,5.09-4.37c3.89-.57,7.83.09,11.77.1a8.21,8.21,0,0,0,3.58-.62,2.61,2.61,0,0,1,1.22-.41,1.75,1.75,0,0,1,1.28.87,5.2,5.2,0,0,1,1,3.15,4.29,4.29,0,0,1-1.32,3,3.9,3.9,0,0,1-1.17.75,6,6,0,0,1-1.6.46,14.9,14.9,0,0,1-3.06,0l-5.7-.3a7,7,0,0,0-2,.09A2.71,2.71,0,0,0,289.54,87.34Z"></path><path class="cls-9" d="M298.55,142.66l-.13-2.06-1.51-23.1,1.2-2.54-2.46-1.58L293.39,115l1.19,2.54L293.16,141l-.21,3.44a2.3,2.3,0,0,0,1.42.61,4.06,4.06,0,0,0,2.49-1.12c.58-.44,1.15-.85,1.72-1.23Z"></path><path class="cls-10" d="M288.07,108.64h-.13a4.62,4.62,0,0,0-1.62-1.39,22.19,22.19,0,0,1-2.15-1.72,4.16,4.16,0,0,0-1.06-2.36,5,5,0,0,1-1.1,0,4.38,4.38,0,0,1-1.84-.52,3.74,3.74,0,0,1-1.94-2.68,3,3,0,0,1,1.32-3l.07,0a2.54,2.54,0,0,1,3.06.46c.19.22.34.47.55.67a.77.77,0,0,0,.79.19c.36-.16.42-.62.45-1a9.27,9.27,0,0,1,1.38-5c.69-1,3-1.64,3.69-5a2.71,2.71,0,0,1,1.21-.63,7,7,0,0,1,2-.09l5.7.3a14.9,14.9,0,0,0,3.06,0,6,6,0,0,0,1.6-.46c.9,2.39.85,5,1,7.58a45.05,45.05,0,0,1,.32,7.15,14.64,14.64,0,0,1-1.5,5.23,7.1,7.1,0,0,1-2,2.57,5.61,5.61,0,0,1-2,.92h0a12.77,12.77,0,0,1-2.9.33c-2.37,0-4.93-.24-6.8-1.65a6.49,6.49,0,0,0,3.58,2.21c1.51.39,5.05.58,6,.12a12.3,12.3,0,0,0-.12,1.35l-10.24-.33A6.22,6.22,0,0,0,288.07,108.64Z"></path><path class="cls-11" d="M300.31,116.27a4.07,4.07,0,0,1-1.53-2.81,7.13,7.13,0,0,1-.06-1.22l-10.24-.33a11.47,11.47,0,0,1-.24,1.38c-.77,2.24-7.55,3.39-12.74,7.89-1.08,1.22-3,3-3.15,6.36h0v35.25l3.61.06a1,1,0,0,0,0,.15s37.8-8,38.35,0c-.55-8-4.12-37-5.31-40.13C307.37,118.72,303.14,118.25,300.31,116.27Zm-3.45,27.67a4.06,4.06,0,0,1-2.49,1.12,2.3,2.3,0,0,1-1.42-.61l.21-3.44h0l1.42-23.51L293.39,115l2.26-1.58,2.46,1.58-1.2,2.54,1.51,23.1.13,2.06,0,.05C298,143.09,297.44,143.5,296.86,143.94Z"></path><polygon class="cls-9" points="292.95 144.44 296.51 150 298.96 144.55 297.46 125.88 296.32 140.68 292.95 144.44"></polygon></g><path class="cls-7" d="M335.66,227.51a38.4,38.4,0,1,0-66.28,26.39h55.77A38.28,38.28,0,0,0,335.66,227.51Z"></path><rect class="cls-2" x="350.19" y="71.75" width="191.15" height="101.09" rx="7.03"></rect><polygon class="cls-2" points="329 144.45 359.25 139.76 358.27 160.84 329 144.45"></polygon><path class="cls-16" d="M430.77,88.4h-64a2.06,2.06,0,0,1,0-4.12h64a2.06,2.06,0,0,1,0,4.12Z"></path><path class="cls-16" d="M461.12,100.64H366.77a2.06,2.06,0,0,1,0-4.12h94.35a2.06,2.06,0,0,1,0,4.12Z"></path><path class="cls-16" d="M526.17,112.88H366.77a2.06,2.06,0,0,1,0-4.12h159.4a2.06,2.06,0,1,1,0,4.12Z"></path><path class="cls-16" d="M526.17,125.12H366.77a2.06,2.06,0,0,1,0-4.12h159.4a2.06,2.06,0,1,1,0,4.12Z"></path><path class="cls-16" d="M526.17,137.36H366.77a2.06,2.06,0,0,1,0-4.12h159.4a2.06,2.06,0,1,1,0,4.12Z"></path><path class="cls-16" d="M526.17,149.6H366.77a2.06,2.06,0,0,1,0-4.12h159.4a2.06,2.06,0,1,1,0,4.12Z"></path><path class="cls-16" d="M428.78,161.84h-62a2.06,2.06,0,0,1,0-4.12h62a2.06,2.06,0,0,1,0,4.12Z"></path><path class="cls-2" d="M358.16,189.45h175.2a8,8,0,0,1,8,8v56.33a0,0,0,0,1,0,0H350.19a0,0,0,0,1,0,0V197.43A8,8,0,0,1,358.16,189.45Z"></path><rect class="cls-2" x="288.57" y="202.13" width="18.26" height="51.49" transform="matrix(1, 0, 0, 1, -0.33, 0.43)"></rect><rect class="cls-2" x="288.57" y="202.13" width="18.26" height="51.49" transform="translate(525.15 -70.15) rotate(89.92)"></rect><path class="cls-16" d="M526.17,211.58H366.77a2.07,2.07,0,0,1,0-4.13h159.4a2.07,2.07,0,0,1,0,4.13Z"></path><path class="cls-16" d="M526.17,223.82H366.77a2.07,2.07,0,0,1,0-4.13h159.4a2.07,2.07,0,0,1,0,4.13Z"></path><path class="cls-16" d="M526.17,236.05H366.77a2.06,2.06,0,0,1,0-4.12h159.4a2.06,2.06,0,1,1,0,4.12Z"></path><path class="cls-16" d="M526.17,248.29H366.77a2.06,2.06,0,0,1,0-4.12h159.4a2.06,2.06,0,1,1,0,4.12Z"></path><path class="cls-2" d="M56.76,216.16l15.5,71.3,2.11-.46L72.2,277H98.47l2.27,10.48,2.12-.46L87.37,215.7l-2.12.46,2.2,10.12H61.18l-2.3-10.58Zm31.16,12.28,2.17,10H63.81l-2.16-10ZM66.45,250.55l-2.17-10H90.56l2.16,10Zm26.74,2.16,2.17,10H69.09l-2.17-10Zm-21.46,22.1-2.17-10H95.83l2.17,10Z"></path><rect class="cls-2" x="73.88" y="214.64" width="22.49" height="2.58"></rect><path class="cls-17" d="M29.89,277H56.16L54,287l2.12.46,15.49-71.3-2.11-.46-2.3,10.58H40.91l2.19-10.12L41,215.7,25.49,287l2.12.46Zm29.38-14.3H33l2.17-10H61.43ZM37.8,240.57H64.07l-2.17,10H35.63Zm28.91-12.13-2.17,10H38.27l2.16-10ZM30.36,274.81l2.16-10H58.8l-2.17,10Z"></path><rect class="cls-17" x="36.19" y="214.64" width="37.69" height="2.58"></rect><path class="cls-18" d="M100.83,90.17a1.14,1.14,0,0,1-.2.66,2.37,2.37,0,0,1-.65.61,5.17,5.17,0,0,1-.68.39,4.82,4.82,0,0,1-2.17,1.65c-1,.42-2,.65-3,1a2.51,2.51,0,0,0-.86.44q-2.55,4.59-5.09,9.18a8.62,8.62,0,0,0-5-3.23c1.5-2.06,2.93-4.17,4.22-6.37a54.79,54.79,0,0,1,3.19-5.17,11.76,11.76,0,0,1,4.57-3.89.75.75,0,0,1,.71,0c.36.23.12.8-.14,1.14l-2,2.61c4.23.75,7.66-1,7.81-.1a.92.92,0,0,1-.23.76A2,2,0,0,1,100.83,90.17Z"></path><path class="cls-17" d="M84,214.64H71.15c0-2.12.11-4.68.16-6.88l4.71-.42a3.85,3.85,0,0,0,1.12,2.39,8.17,8.17,0,0,0,2.78,1.74c1,.43,2.06.78,3,1.31a2.56,2.56,0,0,1,.92.74A1.09,1.09,0,0,1,84,214.64Z"></path><path class="cls-2" d="M68,133.22l-20.25,0A102.4,102.4,0,0,0,49,120.4c.1-3.06.07-6.14-.11-9.21a4.57,4.57,0,0,0,.8-1.17c1-2,.43-4.66,1.72-6.52C52,102.58,53,102,53.55,101a6.52,6.52,0,0,0,.36-3.63c1.19-.1,2.39-.17,3.59-.21v.06a16,16,0,0,1,1.83,0,16.42,16.42,0,0,1,7.26,2.12c2.08,1.19,3.86,2.82,5.83,4.18a43.42,43.42,0,0,0,6.15,3.42c1.57-2,3.12-4,4.6-6a8.62,8.62,0,0,1,5,3.23c-1.51,2.73-3,5.45-4.55,8.19-.81,1.46-1.77,3.06-3.37,3.57s-3.19-.17-4.68-.82l-7.76-3.43c-1.14-.51-2.3-1-3.45-1.51a25.37,25.37,0,0,0,3.18,3.61c-.18,1-.45,2.23-.82,3.74-1,4,.21,11.09,1.27,15.77Z"></path><path class="cls-19" d="M64.39,110.1c1.15.5,2.31,1,3.45,1.51a16.78,16.78,0,0,1-.27,2.1A25.37,25.37,0,0,1,64.39,110.1Z"></path><path class="cls-17" d="M62.46,214.64H49.62c0-2.06.1-4.53.15-6.68H54.6a4,4,0,0,0,1,1.76,8.37,8.37,0,0,0,2.78,1.74,32.38,32.38,0,0,1,3,1.31,2.51,2.51,0,0,1,.93.74A1.07,1.07,0,0,1,62.46,214.64Z"></path><path class="cls-18" d="M54.62,86A2,2,0,0,1,56,84.45a1.6,1.6,0,0,1,1.71.67,7.25,7.25,0,0,0,.85-3.26,3.54,3.54,0,0,1,.19-1.45,3.78,3.78,0,0,1,1.14-1.11,5.71,5.71,0,0,0,1.78-2.5,1.57,1.57,0,0,1,.19.18,5.8,5.8,0,0,1,1.82,3.07c.17.74.17,1.52.31,2.27a3.24,3.24,0,0,0,1,2c.31.26.72.49.77.88s-.26.66-.47,1A5.75,5.75,0,0,0,64.54,89,7.65,7.65,0,0,1,64,91.32,3.06,3.06,0,0,1,62.41,93c-.8.3-1.75.16-2.52.45a1.48,1.48,0,0,0-.12.29,9.27,9.27,0,0,0-.44,3.46,16,16,0,0,0-1.83,0v-.06c-1.2,0-2.4.11-3.59.21,0-.29,0-.58,0-.85A9.82,9.82,0,0,1,57,89.09a2.49,2.49,0,0,1-1.8-1A2.63,2.63,0,0,1,54.62,86Z"></path><path class="cls-20" d="M58.52,163.58c0,1.81-.06,3.66-.09,5.54a114,114,0,0,1-5-16.85Q56.16,157.85,58.52,163.58Z"></path><path class="cls-21" d="M58.43,169.12c-.27,14.22-.81,29.88-2.14,38.85H48.52c2.29-22.78-2.46-45.75-2-68.63q.66-3,1.14-6.08l20.25,0q5.74,36.85,9.17,74l-1.1.1-4.71.42-.48,0a191.89,191.89,0,0,0-12.31-44.22q-2.37-5.73-5.11-11.31A114,114,0,0,0,58.43,169.12Z"></path><path class="cls-19" d="M48.84,111.19c.18,3.07.21,6.15.11,9.21-1.16.24-2.32.44-3.49.6q.12-3.82-.05-7.63A8.38,8.38,0,0,0,48.84,111.19Z"></path><path class="cls-2" d="M45.41,113.37q.17,3.81.05,7.63-1.78.24-3.6.36c-1.43.08-3.13,0-3.94-1.21s-.16-3,.59-4.42c.31-.57.62-1.12.94-1.68a10.82,10.82,0,0,0,5.54-.53A3.52,3.52,0,0,0,45.41,113.37Z"></path><path class="cls-2" d="M67.57,113.71l7.33,57.38-28.38-.49-.71-22.81a94.92,94.92,0,0,1,2-22.3L49,120.4l.06-14,2.17-9.06L59,114.21Z"></path><path class="cls-22" d="M53.91,97.34a6.52,6.52,0,0,1-.36,3.63c-.52,1-1.55,1.61-2.19,2.53-1.29,1.86-.74,4.48-1.72,6.52a4.57,4.57,0,0,1-.8,1.17,8.38,8.38,0,0,1-3.43,2.18,3.52,3.52,0,0,1-.42.15,10.82,10.82,0,0,1-5.54.53l-.5-.12a5.76,5.76,0,0,1-4.18-4.09c-.67-3.15,2-6,2.34-9.24.19-1.68-.28-3.36-.18-5a7.72,7.72,0,0,1,3.15-5.73c1.53-1.1,3.5-1.65,4.66-3.13a13.39,13.39,0,0,0,2.47-6.34,9.33,9.33,0,0,1,5.93-7.12c2.51-1,9.45-1.17,8.72,3.74a1.57,1.57,0,0,0-.19-.18,5.71,5.71,0,0,1-1.78,2.5,3.78,3.78,0,0,0-1.14,1.11,3.54,3.54,0,0,0-.19,1.45,7.25,7.25,0,0,1-.85,3.26A1.6,1.6,0,0,0,56,84.45,2,2,0,0,0,54.62,86a2.63,2.63,0,0,0,.57,2.06,2.49,2.49,0,0,0,1.8,1,9.82,9.82,0,0,0-3.12,7.4C53.87,96.76,53.89,97.05,53.91,97.34Z"></path><path class="cls-18" d="M595.44,148.17c0-.66.38-2.24.39-2.9l6,.66c.09.6.69,2.15.84,2.68a20.75,20.75,0,0,1,4.25.79,10.27,10.27,0,0,1-16.83-1.31A32.38,32.38,0,0,1,595.44,148.17Z"></path><path class="cls-23" d="M608,178.38a.13.13,0,0,0,.11-.13.31.31,0,0,0-.16-.16,6,6,0,0,0-1.72-.69,15.54,15.54,0,0,0-1.66-.28v0a.49.49,0,0,0,.18.3,12.07,12.07,0,0,1,3.24.94Z"></path><path class="cls-24" d="M581.77,260.1c0,.21-.1.42-.14.63A1.41,1.41,0,0,0,581.77,260.1Z"></path><path class="cls-20" d="M581.77,260.1c.11-.46.22-.92.32-1.39A20.44,20.44,0,0,0,578,259a3,3,0,0,1-2.13-.14c-.6-.39-.85-1.21-1.29-1.75a24.82,24.82,0,0,1-5.57,2.75.76.76,0,0,0-.54.72v.07a.75.75,0,0,0,.71.69,89.16,89.16,0,0,0,10.76.17,2.56,2.56,0,0,0,1.13-.21,1.25,1.25,0,0,0,.53-.56C581.67,260.52,581.72,260.31,581.77,260.1Z"></path><path class="cls-24" d="M602.7,260.12a1.23,1.23,0,0,0,.1.6C602.77,260.52,602.73,260.32,602.7,260.12Z"></path><path class="cls-20" d="M602.7,260.12c0,.2.07.4.1.6h0a1.14,1.14,0,0,0,.5.56,2.46,2.46,0,0,0,1.12.21,89.43,89.43,0,0,0,10.77-.17.81.81,0,0,0,.75-.69v-.11a.71.71,0,0,0-.5-.68A23.22,23.22,0,0,1,610,257.1c-.47.54-.77,1.36-1.39,1.75a3.05,3.05,0,0,1-2.13.14,20.29,20.29,0,0,0-4-.28Q602.56,259.42,602.7,260.12Z"></path><path class="cls-18" d="M608.7,256c-.1-9-1.08-18-1.33-27-3.07,0-6.2-.06-9.35-.18q1.86,15,4.44,29.81a20.29,20.29,0,0,1,4,.28,3.05,3.05,0,0,0,2.13-.14c.62-.39.92-1.21,1.39-1.75A11.21,11.21,0,0,1,608.7,256Z"></path><path class="cls-18" d="M574.61,257.1c.44.54.69,1.36,1.29,1.75A3,3,0,0,0,578,259a20.44,20.44,0,0,1,4.06-.28q3.49-15.09,6.25-30.36c-3.16-.23-6.29-.52-9.33-.87-.71,9.52-2.36,19-3,28.56A10.61,10.61,0,0,1,574.61,257.1Z"></path><path class="cls-25" d="M579,227.48c3,.35,6.17.64,9.33.87s6.45.42,9.68.55,6.28.18,9.35.18c1.51,0,3,0,4.47,0-1.22-15.18-2.53-31.3-3.75-46.41a2.19,2.19,0,0,1-.3-.16,11.36,11.36,0,0,0-1.45-1.14,10.81,10.81,0,0,0-2.22-.33c-.22-.06-.47-.19-.48-.41a.36.36,0,0,1,.22-.34,1.13,1.13,0,0,1,.41-.11,8.21,8.21,0,0,1,3.41.39,8.28,8.28,0,0,0-3.28-.87,1.22,1.22,0,0,1-.51-.22.8.8,0,0,1-.13-.13.48.48,0,0,1-.12-.35.54.54,0,0,1,.36-.43,1.11,1.11,0,0,1-.37-.27.86.86,0,0,1-.11-.19.48.48,0,0,1,0-.42c.16-.26.53-.27.83-.24l.41.05a.49.49,0,0,1-.18-.3v0a.53.53,0,0,1,.3-.45,1.11,1.11,0,0,1,.57-.06,8.15,8.15,0,0,1,2.35.65c0-.67.07-1.33.13-2l-20.66-1.1c0,.38-.07.77-.12,1.16h0c-4.77,17.41-7.66,34.06-10.26,51.9Z"></path><path class="cls-23" d="M553.61,144.25c-.16.26,0,.58.25.81q.72.83,1.5,1.59l0,0a.75.75,0,0,1-.22-.37.43.43,0,0,1,.35-.52.71.71,0,0,1,.31.1c.39.21.78.42,1.17.65l-2.28-2.06a1.41,1.41,0,0,0-.52-.35A.51.51,0,0,0,553.61,144.25Z"></path><path class="cls-23" d="M604.4,179.66a8.28,8.28,0,0,1,3.28.87h.06v0a.15.15,0,0,0,.17-.11.24.24,0,0,0-.06-.23.92.92,0,0,0-.21-.13,9.13,9.13,0,0,0-3.88-.74.8.8,0,0,0,.13.13A1.22,1.22,0,0,0,604.4,179.66Z"></path><path class="cls-24" d="M608.09,182.61a2.75,2.75,0,0,1-.3-.14,2.19,2.19,0,0,0,.3.16Z"></path><path class="cls-23" d="M608,179.22A.22.22,0,0,0,608,179a1.35,1.35,0,0,0-.72-.44,10.65,10.65,0,0,0-3.71-.52.86.86,0,0,0,.11.19,1.11,1.11,0,0,0,.37.27h0a1.6,1.6,0,0,1,.58-.07,7.62,7.62,0,0,1,3.27.87v0C607.92,179.34,608,179.28,608,179.22Z"></path><path class="cls-18" d="M603.64,179a.48.48,0,0,0,.12.35,9.13,9.13,0,0,1,3.88.74.92.92,0,0,1,.21.13.24.24,0,0,1,.06.23.15.15,0,0,1-.17.11v0h-.06a8.21,8.21,0,0,0-3.41-.39,1.13,1.13,0,0,0-.41.11.36.36,0,0,0-.22.34c0,.22.26.35.48.41a10.81,10.81,0,0,1,2.22.33,11.36,11.36,0,0,1,1.45,1.14,2.75,2.75,0,0,0,.3.14,5.11,5.11,0,0,0,4.13-.33l0,0a85,85,0,0,0,12.51-8.12c1.16-.85,2.42-1.87,2.58-3.31s-.85-2.69-1.79-3.77l-6.73-7.75a52.89,52.89,0,0,0-5.67,6.29l5.49,4.09q-3.64,3.75-7.63,7.14a2.82,2.82,0,0,1-2.11.92c-.36-.18-.72-.34-1.09-.49a8.15,8.15,0,0,0-2.35-.65,1.11,1.11,0,0,0-.57.06.53.53,0,0,0-.3.45,15.54,15.54,0,0,1,1.66.28,6,6,0,0,1,1.72.69.31.31,0,0,1,.16.16.13.13,0,0,1-.11.13v0a12.07,12.07,0,0,0-3.24-.94l-.41-.05c-.3,0-.67,0-.83.24a.48.48,0,0,0,0,.42,10.65,10.65,0,0,1,3.71.52,1.35,1.35,0,0,1,.72.44.22.22,0,0,1,.06.19c0,.06-.09.12-.15.09v0a7.62,7.62,0,0,0-3.27-.87,1.6,1.6,0,0,0-.58.07h0A.54.54,0,0,0,603.64,179Z"></path><path class="cls-23" d="M555.22,146.7a2.47,2.47,0,0,0,.58,1.78,2.43,2.43,0,0,0,1.74.83v0a1.51,1.51,0,0,1-.71-.87,3,3,0,0,0-.66-1.23,4,4,0,0,0-.59-.39,1.46,1.46,0,0,1-.21-.16l0,0,.58.55,0,0Z"></path><path class="cls-22" d="M592.23,132.68c.17.12.35.24.54.35a20,20,0,0,0,5.53,1.88h0a36.23,36.23,0,0,1,0,5.8,12.89,12.89,0,0,0,.82,5.69v.1c.83.12,1.67.19,2.51.23a28.89,28.89,0,0,0,5.88-.3,16.25,16.25,0,0,1-.41-5.39,32.83,32.83,0,0,0,.09-5.78,8.12,8.12,0,0,0-2.35-5.15,8.42,8.42,0,0,0-4.36-1.75c-1.23-.73-2.68-1.77-4.11-1.66a5.28,5.28,0,0,0-3.73,1.9A4.16,4.16,0,0,0,592.23,132.68Z"></path><path class="cls-18" d="M552.41,145.74l0,0a.38.38,0,0,0-.44.16.65.65,0,0,0,0,.59,1.76,1.76,0,0,0,.41.45l2.06,1.84,0,0L552.3,148a.84.84,0,0,0-.37-.09c-.13,0-.27.11-.28.24a.42.42,0,0,0,.21.33l1.11.91a47.85,47.85,0,0,0,4,2.83c2.42,4.89,6.69,11.83,9.32,16a4.12,4.12,0,0,0,5.78,1.22l9.77-6.56a28.49,28.49,0,0,1-4.59-7.58c-2.45,2.21-4.91,4.58-6.55,6.34q-5.61-6.24-11.22-12.48l0,0a4.59,4.59,0,0,0-1.52-2,8.08,8.08,0,0,0-1-.67c-.39-.23-.78-.44-1.17-.65a.71.71,0,0,0-.31-.1.43.43,0,0,0-.35.52.75.75,0,0,0,.22.37,1.46,1.46,0,0,0,.21.16,4,4,0,0,1,.59.39,3,3,0,0,1,.66,1.23,1.51,1.51,0,0,0,.71.87v0a2.43,2.43,0,0,1-1.74-.83,2.47,2.47,0,0,1-.58-1.78c-.73-.57-1.47-1.15-2.22-1.69A.47.47,0,1,0,552.41,145.74Z"></path><path class="cls-17" d="M584.45,157a10.07,10.07,0,0,0-.78,4.63l1.63-1.09a18.24,18.24,0,0,1,2.32-7.52A10,10,0,0,0,584.45,157Z"></path><path class="cls-26" d="M585.3,160.56a8.43,8.43,0,0,0,.16,1.8,36.07,36.07,0,0,0,1.16,3.61,21,21,0,0,1,.66,8.2l20.66,1.1a60.34,60.34,0,0,1,1.45-8.46,7.82,7.82,0,0,1-.83-4.63l1.68,1.25,2.91,2.17a52.89,52.89,0,0,1,5.67-6.29l-1-1.16a42.67,42.67,0,0,0-6.89-6.81,13,13,0,0,0-4-1.94,10.27,10.27,0,0,1-16.83-1.31,19.26,19.26,0,0,0-5.13,1.12c-1.11.42-4.4,3.1-7.72,6.1a28.49,28.49,0,0,0,4.59,7.58l1.85-1.24a9.78,9.78,0,0,1,4-8.61A18.24,18.24,0,0,0,585.3,160.56Z"></path><path class="cls-17" d="M608.56,162.18a7.82,7.82,0,0,0,.83,4.63c.26-1.13.55-2.26.85-3.38Z"></path><path class="cls-18" d="M595.83,145.27c-2.38-.17-6.35-1.53-5.39-7.06-.44-.2-1-.5-1-1s.46-.76.83-1a9,9,0,0,0,2.3-2.87c0-.1.11-.2.16-.31a20,20,0,0,0,5.53,1.88h0a36.23,36.23,0,0,1,0,5.8,12.89,12.89,0,0,0,.82,5.69v.1c.83.12,1.67.19,2.51.23.06.44.12.9.19,1.35l-6-.61C595.81,146.74,595.82,146,595.83,145.27Z"></path><path class="cls-27" d="M557.39,143.49a1.79,1.79,0,0,0-1.31-.1,1.67,1.67,0,0,0-1,.87,2.79,2.79,0,0,1,.46-.45,1.92,1.92,0,0,1,.57-.29A2.28,2.28,0,0,1,557.39,143.49Z"></path><path class="cls-27" d="M557.06,144.75a.58.58,0,0,1-.31,1.12.55.55,0,0,0,.45,0,.58.58,0,0,0,.29-.36.62.62,0,0,0-.06-.46A.58.58,0,0,0,557.06,144.75Z"></path><path class="cls-28" d="M558.13,136.52c-.08.31.67.79,1.69,1.07s1.91.25,2-.06-.67-.79-1.69-1.07S558.22,136.21,558.13,136.52Z"></path><path class="cls-29" d="M561.82,142.53l-.28,1,.7.19a1.11,1.11,0,0,0,1.32-.64Z"></path><path class="cls-30" d="M544.57,122.65c-.58.69-1.13,1.39-1.63,2.1,3.78,5.44,14.29,9.1,14.29,9.1l.46-1.68A26.74,26.74,0,0,1,544.57,122.65Z"></path><path class="cls-30" d="M538.57,136a21.22,21.22,0,0,0-.05,3.48c5.27-.83,10.94-1.12,16.18.86l.68.21.39-1.41S544.61,135.12,538.57,136Z"></path><path class="cls-30" d="M558.11,130.66l-.33,1.18c1.33.52,5.39,1.66,6.44,1.95l.37-1.34-.1,0Z"></path><path class="cls-28" d="M540.62,126.62a.26.26,0,0,0-.36.09s-.16.25-.36.62a19.86,19.86,0,0,0-1.91,5.12.26.26,0,0,0,.18.31h0a.28.28,0,0,0,.31-.19v0a19.3,19.3,0,0,1,2.21-5.57A.26.26,0,0,0,540.62,126.62Z"></path><path class="cls-31" d="M537.26,140.53a.55.55,0,0,0,.39.43.54.54,0,0,0,.22,0,.53.53,0,0,0,.44-.61c0-.27-.08-.55-.11-.82a20,20,0,0,1-.09-3.45,18,18,0,0,1,.57-3.46,24.36,24.36,0,0,1,4-8.21c.5-.69,1-1.39,1.62-2.09l.39-.46a.53.53,0,0,0-.81-.68,34.31,34.31,0,0,0-4.22,6A20.51,20.51,0,0,0,537.26,140.53Zm.73-8.08a19.86,19.86,0,0,1,1.91-5.12c.2-.37.34-.59.36-.62a.26.26,0,0,1,.36-.09.26.26,0,0,1,.09.37,19.3,19.3,0,0,0-2.21,5.57v0a.28.28,0,0,1-.31.19h0A.26.26,0,0,1,538,132.45Z"></path><path class="cls-30" d="M557.2,144.81a.58.58,0,0,0-.3,1.08.6.6,0,0,0,.57-.43A.59.59,0,0,0,557.2,144.81Z"></path><path class="cls-32" d="M557.06,144.75a.58.58,0,0,0-.31,1.12l.15,0a.58.58,0,0,1,.3-1.08A.35.35,0,0,0,557.06,144.75Z"></path><path class="cls-33" d="M557.47,145.46a.59.59,0,0,0-.27-.65.35.35,0,0,0-.14-.06.58.58,0,0,0-.31,1.12l.15,0A.6.6,0,0,0,557.47,145.46Zm-2.37-1.2a1.86,1.86,0,0,1,2.3-.76,2,2,0,0,1,1.16,3h0a44.66,44.66,0,0,1-4.33,5.1,1.81,1.81,0,0,1-2.71-2.4A44.5,44.5,0,0,0,555.1,144.26Z"></path><path class="cls-30" d="M560.29,143.59l-4.19-1.16c-.29.6-.62,1.21-1,1.83a1.86,1.86,0,0,1,2.3-.76,2,2,0,0,1,1.16,3A18.54,18.54,0,0,0,560.29,143.59Z"></path><path class="cls-32" d="M556.27,142.07c0,.12-.11.24-.17.36l4.19,1.16.16-.37Z"></path><polygon class="cls-30" points="555.38 140.56 555.06 141.74 556.27 142.07 560.45 143.22 561.54 143.52 561.82 142.53 555.38 140.56"></polygon><path class="cls-32" d="M557.69,132.17l.2.07,6.25,1.84.08-.29c-1.05-.29-5.11-1.43-6.44-1.95Z"></path><path class="cls-34" d="M562.5,141l1.57.43a.27.27,0,0,0,.33-.19.27.27,0,0,0-.19-.33l-1.56-.43Zm.31-1.13,1.57.43a.27.27,0,0,0,.33-.18.27.27,0,0,0-.19-.33l-1.56-.43Zm.31-1.12,1.57.43a.26.26,0,1,0,.14-.51l-1.57-.43Zm2.21-.88a.27.27,0,0,0-.19-.33l-1.57-.43-.14.52,1.57.43A.27.27,0,0,0,565.33,137.89Zm.31-1.12a.28.28,0,0,0-.19-.33l-1.57-.43-.14.51,1.57.43A.27.27,0,0,0,565.64,136.77Zm-1.55,5.62a.26.26,0,0,0-.19-.33l-1.56-.43-.14.51,1.56.43A.27.27,0,0,0,564.09,142.39Zm0-7,1.57.43a.26.26,0,0,0,.32-.19.27.27,0,0,0-.18-.33l-1.57-.43Zm2.71-.55-.29,1.06-1.79,6.51-.25.91-.87-.26-1.74-.54,2.32-8.45,1.75.52Z"></path><path class="cls-33" d="M555.77,139.15l-.39,1.41,6.44,2,2.32-8.45-6.25-1.84-.2-.07-.46,1.68Z"></path><path class="cls-35" d="M544.34,122.33c-.58.7-1.12,1.4-1.62,2.09l.22.33c.5-.71,1-1.41,1.63-2.1A3.71,3.71,0,0,1,544.34,122.33Z"></path><path class="cls-35" d="M538.11,136.09a20,20,0,0,0,.09,3.45l.32,0a21.22,21.22,0,0,1,.05-3.48Z"></path><path class="cls-30" d="M538.68,132.63a18,18,0,0,0-.57,3.46l.46-.08a23.09,23.09,0,0,1,4.37-11.26l-.22-.33A24.36,24.36,0,0,0,538.68,132.63Z"></path><path class="cls-33" d="M542.94,124.75A23.09,23.09,0,0,0,538.57,136c6-.89,17.2,3.14,17.2,3.14l1.46-5.3S546.72,130.19,542.94,124.75Z"></path><rect class="cls-36" x="550.84" y="136.07" width="11.49" height="0.26" transform="translate(277.71 636.76) rotate(-74.63)"></rect><path class="cls-37" d="M565,139a.27.27,0,0,1-.33.19l-1-.28.15-.52,1,.29A.26.26,0,0,1,565,139Z"></path><rect class="cls-38" x="563.2" y="138.31" width="0.53" height="0.56" transform="translate(280.44 645.14) rotate(-74.62)"></rect><rect class="cls-38" x="562.58" y="140.55" width="0.54" height="0.56" transform="translate(277.84 646.21) rotate(-74.63)"></rect><path class="cls-37" d="M564.4,141.26a.27.27,0,0,1-.33.19l-1-.28.14-.52,1,.28A.27.27,0,0,1,564.4,141.26Z"></path><rect class="cls-38" x="563.51" y="137.18" width="0.54" height="0.56" transform="matrix(0.27, -0.96, 0.96, 0.27, 281.62, 644.54)"></rect><path class="cls-37" d="M565.33,137.89a.27.27,0,0,1-.33.19l-1-.29.15-.51,1,.28A.27.27,0,0,1,565.33,137.89Z"></path><rect class="cls-38" x="562.27" y="141.68" width="0.54" height="0.56" transform="translate(276.41 646.67) rotate(-74.61)"></rect><path class="cls-37" d="M564.09,142.39a.27.27,0,0,1-.33.18l-1-.28.14-.51,1,.28A.26.26,0,0,1,564.09,142.39Z"></path><rect class="cls-38" x="562.89" y="139.43" width="0.53" height="0.56" transform="translate(279.09 645.65) rotate(-74.62)"></rect><path class="cls-37" d="M564.71,140.14a.27.27,0,0,1-.33.18l-1-.28.14-.51,1,.28A.27.27,0,0,1,564.71,140.14Z"></path><path class="cls-37" d="M565.76,135.31a.27.27,0,0,1,.18.33.26.26,0,0,1-.32.19l-1-.28.14-.52Z"></path><rect class="cls-38" x="564.12" y="134.93" width="0.54" height="0.56" transform="translate(284.38 643.56) rotate(-74.63)"></rect><rect class="cls-38" x="563.82" y="136.06" width="0.54" height="0.56" transform="translate(283.09 644.1) rotate(-74.63)"></rect><path class="cls-37" d="M565.64,136.77a.27.27,0,0,1-.33.18l-1-.28.14-.52,1,.29A.28.28,0,0,1,565.64,136.77Z"></path><path class="cls-34" d="M568.22,139.51l-.19.72a3,3,0,0,1-2.95,2.22l1.75-6.36A3,3,0,0,1,568.22,139.51Z"></path><path class="cls-38" d="M566.47,135.91l.36.18-1.75,6.36a2.69,2.69,0,0,1-.4,0Z"></path><path class="cls-34" d="M564.59,132.45a1.93,1.93,0,0,1,1.32,1.8l-1.69-.46Z"></path><path class="cls-39" d="M565.91,134.25a2.06,2.06,0,0,1,0,.35l-1.75-.52.08-.29h0Z"></path><path class="cls-28" d="M551.78,134.44c-.08.81-6.75-.26-6.34-1.74S551.87,133.64,551.78,134.44Z"></path><path class="cls-40" d="M557.55,149.28v0a2.43,2.43,0,0,1-1.41-.53,3.8,3.8,0,0,0,.78-.22A1.42,1.42,0,0,0,557.55,149.28Z"></path><path class="cls-18" d="M557.17,148.45l-.26.11a1,1,0,0,1-.07-.15,3,3,0,0,0-.66-1.23,4,4,0,0,0-.59-.39,1.46,1.46,0,0,1-.21-.16.75.75,0,0,1-.22-.37.43.43,0,0,1,.35-.52.71.71,0,0,1,.31.1c.39.21.78.42,1.17.65a8.08,8.08,0,0,1,1,.67c.18.14.34.29.5.44a2,2,0,0,1-.3.28A4.7,4.7,0,0,1,557.17,148.45Z"></path><path class="cls-2" d="M604.23,148.44l-2.05,3.89a31.88,31.88,0,0,0-3.69,14.87v46.74h14.06l-4.61-38.67,2.18-11.2,7.56,5.77-6.7,5.94,2.58,5.79s15.36-7.85,14.62-11.21-14.91-18.86-18-20.3A18.36,18.36,0,0,0,604.23,148.44Z"></path><path class="cls-2" d="M593.29,147.77l1,5.16a59.28,59.28,0,0,1,1,14l-2.05,47H578.15l6.35-27.64a58.06,58.06,0,0,0,.35-24.34l-.19-1s-13.09,10.33-15.87,10.31c-3.79,0-11.1-16-11.1-16l4.09-4.14,8.9,10.45,10.48-9.9a13.64,13.64,0,0,1,8.31-3.68Z"></path><path class="cls-23" d="M607.94,178.42a.11.11,0,0,0,.1-.13.25.25,0,0,0-.15-.17,6,6,0,0,0-1.72-.69,15.54,15.54,0,0,0-1.66-.28v0a.42.42,0,0,0,.18.3,11.73,11.73,0,0,1,3.24.95Z"></path><path class="cls-23" d="M604.32,179.69a8.28,8.28,0,0,1,3.28.87h0v0a.15.15,0,0,0,.17-.11.22.22,0,0,0-.07-.22.9.9,0,0,0-.2-.14,9,9,0,0,0-3.88-.73l.13.12A1.17,1.17,0,0,0,604.32,179.69Z"></path><path class="cls-23" d="M607.93,179.25a.26.26,0,0,0-.06-.19,1.35,1.35,0,0,0-.72-.44,10.65,10.65,0,0,0-3.71-.52.4.4,0,0,0,.11.19,1.11,1.11,0,0,0,.37.27h0a1.6,1.6,0,0,1,.58-.07,7.66,7.66,0,0,1,3.27.87v0C607.84,179.37,607.92,179.31,607.93,179.25Z"></path><path class="cls-18" d="M607.15,178.62a10.65,10.65,0,0,0-3.71-.52.48.48,0,0,1,0-.42c.16-.26.53-.27.83-.24l.41.05a11.73,11.73,0,0,1,3.24.95v0a.11.11,0,0,0,.1-.13.25.25,0,0,0-.15-.17,6,6,0,0,0-1.72-.69,15.54,15.54,0,0,0-1.66-.28.54.54,0,0,1,.3-.45,1.11,1.11,0,0,1,.57-.06,8.08,8.08,0,0,1,2.34.65c.37.15.74.31,1.1.49a2.83,2.83,0,0,0,2.11-.92l.43-.39,2.2,5.1a8,8,0,0,1-1.39.72l0,0a5.13,5.13,0,0,1-4.14.33l-.29-.14a13,13,0,0,0-1.45-1.14A10.91,10.91,0,0,0,604,181c-.23-.05-.47-.18-.49-.41a.41.41,0,0,1,.23-.34,1,1,0,0,1,.41-.1,8.37,8.37,0,0,1,3.41.38h0v0a.15.15,0,0,0,.17-.11.22.22,0,0,0-.07-.22.9.9,0,0,0-.2-.14,9,9,0,0,0-3.88-.73.48.48,0,0,1-.12-.36.54.54,0,0,1,.36-.43h0a1.6,1.6,0,0,1,.58-.07,7.66,7.66,0,0,1,3.27.87v0c.06,0,.14,0,.15-.09a.26.26,0,0,0-.06-.19A1.35,1.35,0,0,0,607.15,178.62Z"></path><path class="cls-18" d="M243.9,173.94l4.43-6.14a32.69,32.69,0,0,1-5.43-4.44,70.4,70.4,0,0,0-4.52,10.41,9.26,9.26,0,0,0-1.19,3.75,3.22,3.22,0,0,0,1.9,3.18,4.27,4.27,0,0,0,2.4-.1,40.33,40.33,0,0,0,7.55-2.8v-5.07Z"></path><path class="cls-41" d="M271.74,237.12l7-.29,1.63-.07q.12,5.18.67,10.32a10.08,10.08,0,0,0,.51,2.51,3,3,0,0,0,1.66,1.89c4,1.13,4.84,1.93,4.58,2.55s-.43.9-1.57.75h-3.43l-5.16,0c-.67,0-1.46-.06-1.82-.62a2.25,2.25,0,0,1-.25-1.12,15.09,15.09,0,0,0-1.09-4q-2.21-5.91-4.42-11.81Z"></path><path class="cls-18" d="M276,214.61q1.38,11.1,2.77,22.22l-7,.29c-1.78-7.35-2.61-15.05-4-22.53Z"></path><path class="cls-22" d="M252.41,133.55a8.33,8.33,0,0,1,3.1-2.79,6.41,6.41,0,0,1,.88-.5,7.07,7.07,0,0,1,8.38,1.69c1.56,1.94,1.8,4.58,1.77,7.1l-.09.07a.27.27,0,0,0-.08-.07,3.75,3.75,0,0,1-.84-1.17A10.1,10.1,0,0,1,261,136c.13.62.25,1.24.38,1.87a6.18,6.18,0,0,1-4.22-4.49,11,11,0,0,1-5,7.14h-.07a8.66,8.66,0,0,1-.12-1.44,1.27,1.27,0,0,0-.83-.13A8.26,8.26,0,0,1,252.41,133.55Z"></path><path class="cls-22" d="M256.81,147.33a9.59,9.59,0,0,1-.1,1.7,20,20,0,0,1-5.62-.32,19.69,19.69,0,0,0,.32-6.76,2.71,2.71,0,0,0,1.06.17,9.39,9.39,0,0,0,4.34,5.21Z"></path><path class="cls-2" d="M261.38,137.83a.37.37,0,0,0,0,.09.36.36,0,0,1,0-.1Z"></path><path class="cls-18" d="M251.94,139a8.66,8.66,0,0,0,.12,1.44,9.15,9.15,0,0,0,.41,1.64,2.71,2.71,0,0,1-1.06-.17,2,2,0,0,1-.42-.2,1.9,1.9,0,0,1-.88-1.34,1.42,1.42,0,0,1,.7-1.39,1.33,1.33,0,0,1,.3-.11A1.27,1.27,0,0,1,251.94,139Z"></path><path class="cls-18" d="M252.47,142.12a9.15,9.15,0,0,1-.41-1.64h.07a11,11,0,0,0,5-7.14,6.18,6.18,0,0,0,4.22,4.49.36.36,0,0,0,0,.1.37.37,0,0,1,0-.09h0c-.13-.63-.25-1.25-.38-1.87a10.1,10.1,0,0,0,4.57,1.93,3.75,3.75,0,0,0,.84,1.17v.15h0a24.77,24.77,0,0,1-.25,3c-.08.57-.19,1.15-.32,1.71a6.09,6.09,0,0,1-3,3.75,6.21,6.21,0,0,1-2.49.83,9.68,9.68,0,0,1-3.52-1.16,9.39,9.39,0,0,1-4.34-5.21Z"></path><path class="cls-2" d="M266.37,139.05a.27.27,0,0,1,.08.07s-.06,0-.08.08Z"></path><path class="cls-18" d="M267.57,139.05a1.28,1.28,0,0,1,.48,1.28,2.07,2.07,0,0,1-.77,1.19,6.37,6.37,0,0,1-1.16.68,24.77,24.77,0,0,0,.25-3h0s.06,0,.08-.08l.09-.07A1,1,0,0,1,267.57,139.05Z"></path><path class="cls-22" d="M265.8,143.91c.13-.56.24-1.14.32-1.71a5.28,5.28,0,0,0,.53-.27,17.62,17.62,0,0,0,.74,6.8,19.18,19.18,0,0,1-4.6.35,8.42,8.42,0,0,1,0-1.42A6.09,6.09,0,0,0,265.8,143.91Z"></path><path class="cls-18" d="M256.81,147.33a9.68,9.68,0,0,0,3.52,1.16,6.21,6.21,0,0,0,2.49-.83,8.42,8.42,0,0,0,0,1.42l0,.24a5,5,0,0,0,.1.56h0a.5.5,0,0,0,0,.13,62.86,62.86,0,0,1-6.44-.13,5.83,5.83,0,0,0,.19-.85A9.59,9.59,0,0,0,256.81,147.33Z"></path><path class="cls-18" d="M296.59,161.52c-1,1.17-1.89,2.6-3.27,3.2q-4.23,4.54-8.48,9.08c-.83.89-1.83,1.86-3.06,1.83a4.29,4.29,0,0,1-2.57-1.35,80.35,80.35,0,0,1-6.17-6.07,8.67,8.67,0,0,0-.3-1.88l5.22-4.44c1.25,1.77,2.46,3.58,3.63,5.4q4.49-3.1,9.25-5.8a12.28,12.28,0,0,1,2.26-5.87,1.37,1.37,0,0,1,.42-.41.46.46,0,0,1,.55.06.58.58,0,0,1,.07.57c-.17.57-.66,1-.83,1.56a2.46,2.46,0,0,0-.08.46l4.5-3.13a1.4,1.4,0,0,1,.45-.24.48.48,0,0,1,.47.15c.19.27-.09.61-.34.81-.95.78-1.92,1.51-2.92,2.21v0c1.08-.7,2.18-1.36,3.3-2,.28-.15.66-.29.88-.07a.5.5,0,0,1,.05.56,1.32,1.32,0,0,1-.24.29.31.31,0,0,1,.24.3.89.89,0,0,1-.27.5,18,18,0,0,1-2.89,2.48l0,0,2.57-1.61a.68.68,0,0,1,.47-.15c.27.05.36.43.25.67a1.48,1.48,0,0,1-.6.56A12.72,12.72,0,0,0,296.59,161.52Z"></path><path class="cls-18" d="M251.11,214.55l8.75,0q-1.71,12-2.57,24.08h-6.16Q250.88,226.6,251.11,214.55Z"></path><path class="cls-25" d="M248.3,225.85c-.75-12.73.74-36.88,3.41-49.36l2.09-1.07a3.35,3.35,0,0,0,2-.5c.28-.14.54-.32.8-.48l-.15,4.31a1.21,1.21,0,0,0,1.21,1.26l12.29,0a1.22,1.22,0,0,0,1.22-1.17l.26-7a.78.78,0,0,0,.15-.1c1.85,14.31,5.67,40.59,8,54.83Z"></path><polygon class="cls-25" points="255.72 175.91 256.56 174.44 271.39 171.88 271.84 179.19 271.7 181.46 262.6 184.13 255.57 181.91 255.72 175.91"></polygon><path class="cls-42" d="M271.39,171.87l.32-8.65c.21.51.39,1,.57,1.55s.33,1,.46,1.56a8.67,8.67,0,0,1,.3,1.88v.35a4,4,0,0,1-1.5,3.21A.78.78,0,0,1,271.39,171.87Z"></path><path class="cls-42" d="M250.21,165.19l-1.88,2.61a32.69,32.69,0,0,1-5.43-4.44c.65-1.27,1.31-2.53,2-3.8,1.08-2.05,2.34-4.17,4.38-5.27s4.56-.95,6.06-2.52a5.65,5.65,0,0,0,1.15-1.89h0A62.86,62.86,0,0,0,263,150a4.09,4.09,0,0,0,1.27,1.75c1.56,1.33,4,.76,5.9,1.44a9.09,9.09,0,0,1,3.89,3.37q2,2.61,3.94,5.32l-5.22,4.44c-.13-.52-.3-1.05-.46-1.56s-.36-1-.57-1.55l.15-3.92a1.24,1.24,0,0,0-1.22-1.27l-12.3,0a1.23,1.23,0,0,0-1.22,1.18l-.33,9a4.23,4.23,0,0,0-.4.34c-.72.73-1.22,1.67-2,2.33a7.59,7.59,0,0,1-3.36,1.42C250.76,169.9,250.49,167.55,250.21,165.19Z"></path><path class="cls-2" d="M255.33,151.77c2.4,5.65,4.41,12.25,4.41,12.25l.12,42.49H247.64l3.25-28.87-.68-12.45-6.31,8.75,3.58-.85,1.1,5.08s-8.31,5.22-11.39,1.49c-2.34-2.83,5.07-15.85,8.79-22a9.14,9.14,0,0,1,5.18-4A11.91,11.91,0,0,0,255.33,151.77Z"></path><path class="cls-2" d="M264.23,151.76c-.62,5.5-1.27,12.08-1.27,12.08l1.21,42.67h13.06l-5-33.92L272,171.4s1.19-.57,1.08-3.19c0,0,5.07,7,8.74,7.42s11.54-10.91,11.54-10.91l-2.48-3.23-9.25,5.8L273,155.05a4.84,4.84,0,0,0-3.36-2A20.26,20.26,0,0,1,264.23,151.76Z"></path><polygon class="cls-43" points="256.56 174.44 250.53 180.83 250.89 177.64 250.78 175.68 256.56 174.44"></polygon><path class="cls-43" d="M255.17,174.07v3.4a2,2,0,0,0,2,2h2.64v-6.39Z"></path><path class="cls-43" d="M272,171.4v6.08a2,2,0,0,1-2,2h-6.6v-5Z"></path><path class="cls-7" d="M261.82,167.42a.73.73,0,0,0,.37-.53.43.43,0,0,0-.35-.46,10.35,10.35,0,0,0-5,1.73l.33-9a1.23,1.23,0,0,1,1.22-1.18l12.3,0a1.24,1.24,0,0,1,1.22,1.27l-.15,3.92-.32,8.65-.18,5.13a1.22,1.22,0,0,1-1.22,1.17l-12.3,0a1.23,1.23,0,0,1-1.21-1.27l.08-2.44a12.85,12.85,0,0,1,1.12-.68,10.36,10.36,0,0,1,2.89-.86v0a.87.87,0,0,0,.39-.18.37.37,0,0,0,.13-.39.43.43,0,0,0-.27-.24,1.7,1.7,0,0,0-.39,0l-3,.15c1.39-.92,3.21-.86,4.75-1.5a1.27,1.27,0,0,0,.46-.28.56.56,0,0,0,.14-.5.54.54,0,0,0-.39-.31h0a.83.83,0,0,0,.34-.3.5.5,0,0,0,0-.56.81.81,0,0,0-.72-.21,32.37,32.37,0,0,0-4.28.46,15.21,15.21,0,0,1,3.49-1.35A2.46,2.46,0,0,0,261.82,167.42Z"></path><path class="cls-41" d="M257.3,237h-7.45a113.88,113.88,0,0,1,1.51,12.08c0,.37,0,.75,0,1.12a3.77,3.77,0,0,1-.64,2.34c-.31.42-.76.74-1,1.18a1.44,1.44,0,0,0-.2.81h7.18a91.19,91.19,0,0,1,1.6-17.53Z"></path><path class="cls-18" d="M262.38,169.59h0a.83.83,0,0,0,.34-.3.5.5,0,0,0,0-.56.81.81,0,0,0-.72-.21,32.37,32.37,0,0,0-4.28.46,15.21,15.21,0,0,1,3.49-1.35,2.46,2.46,0,0,0,.63-.21.73.73,0,0,0,.37-.53.43.43,0,0,0-.35-.46,10.35,10.35,0,0,0-5,1.73,4.23,4.23,0,0,0-.4.34c-.72.73-1.22,1.67-2,2.33a7.59,7.59,0,0,1-3.36,1.42l-.2.05-1.8.43v5.07c.89-.42,1.79-.86,2.67-1.31l2.09-1.07a3.35,3.35,0,0,0,2-.5c.28-.14.54-.32.8-.48a12.85,12.85,0,0,1,1.12-.68,10.36,10.36,0,0,1,2.89-.86v0a.87.87,0,0,0,.39-.18.37.37,0,0,0,.13-.39.43.43,0,0,0-.27-.24,1.7,1.7,0,0,0-.39,0l-3,.15c1.39-.92,3.21-.86,4.75-1.5a1.27,1.27,0,0,0,.46-.28.56.56,0,0,0,.14-.5A.54.54,0,0,0,262.38,169.59Z"></path><polygon class="cls-2" points="245.88 173.47 252.2 171.95 252.93 176.14 246.82 179.14 245.88 173.47"></polygon><rect class="cls-44" x="259.78" y="178.15" width="3.62" height="1.29" transform="translate(-0.53 0.77) rotate(-0.17)"></rect><path class="cls-18" d="M189.84,286.12A14.19,14.19,0,0,1,191,288.2c2.05-.12,4.07-.33,6.09-.65a4.2,4.2,0,0,1,.06-.6c.7-5.06,1.82-12.74,2.58-19l-7.65-.46c.14,3.94.27,8.59.45,11.51.11,1.93.18,4-.94,5.59A5.46,5.46,0,0,1,189.84,286.12Z"></path><path class="cls-45" d="M184,288.92a2.73,2.73,0,0,0-.94.61,1,1,0,0,0-.23,1c.22.43.8.53,1.28.56,4.27.27,13.1-.14,13.1-.14.21-1.43-.16-2.18-.11-3.44-2,.32-4,.53-6.09.65a14.19,14.19,0,0,0-1.17-2.08,16.8,16.8,0,0,1-1.84.95Z"></path><path class="cls-18" d="M223,229.33a41.67,41.67,0,0,0,2.71-4.15,39.79,39.79,0,0,1-7.35-4.92c-1.54,3.55-3,7.31-4.4,10.17l-13.82,8.7c-.53,0-1.07,0-1.6,0a5.09,5.09,0,0,0-2.92.57,5.21,5.21,0,0,0-2,4l1.14-.17a7.11,7.11,0,0,1,1.57-1,8.85,8.85,0,0,1,3.7-.31,5.55,5.55,0,0,0,3.59-.76h0c5.59-1.95,11.25-4.05,15.65-8A26.5,26.5,0,0,0,223,229.33Z"></path><path class="cls-45" d="M208,257a141.13,141.13,0,0,0,20.15-.39c4.32-.45,8.94-1.37,11.94-4.51a13.7,13.7,0,0,0,3.34-7.06c0-.19.07-.37.09-.56A118,118,0,0,1,225.25,239l-.1,0c-5.42,1.38-10.83,2.46-16.22,3.72-3.26.76-6.5,1.58-9.73,2.58-2,.62-4.14,1.33-5.59,2.89a11.81,11.81,0,0,0-2.34,5,128.64,128.64,0,0,0-3.19,14.12l4,.23,7.65.46,1.5.09c.29-3.75.6-7.51.89-11.26Q205,256.91,208,257Z"></path><path class="cls-17" d="M184,228.74l8.14,16.4-.1-1.19.72-.11-7.71-15.55C184.79,227.66,183.74,228.1,184,228.74Z"></path><path class="cls-17" d="M207.78,241.56l-13,2-1.14.17-.84.12-.72.11.1,1.19,16.76-2.56-.06-.28A.94.94,0,0,0,207.78,241.56Z"></path><path class="cls-46" d="M202.13,256.76c-.29,3.75-.6,7.51-.89,11.26l.43,0,1.66-1.05,6.22-4,1.51-1Q209.5,259.54,208,257,205,256.9,202.13,256.76Z"></path><path class="cls-45" d="M213,285.47a7.62,7.62,0,0,0-2.57-1.45,17.91,17.91,0,0,1-.95,1.85c-.72,1.29-1.43,2.58-2.15,3.86a2.75,2.75,0,0,0-.42,1,1,1,0,0,0,.43,1,1.44,1.44,0,0,0,1.37-.29c3.62-2.28,10.54-7.78,10.54-7.78a15,15,0,0,0-1.94-2.49Q215.22,283.42,213,285.47Z"></path><path class="cls-18" d="M210.39,284a7.62,7.62,0,0,1,2.57,1.45q2.25-2.06,4.31-4.29a6.47,6.47,0,0,1-.48-.77c-2.39-4.49-4.75-11.68-7.24-17.37l-6.22,4c1.88,2.81,7.55,13,7.57,14.75A5.78,5.78,0,0,1,210.39,284Z"></path><path class="cls-18" d="M214.05,203.09c0,.58-.09,1.32.42,1.6a.9.9,0,0,0,.88-.1,2.26,2.26,0,0,0,.52-.55,14.45,14.45,0,0,0,1.95,2,4.37,4.37,0,0,0,1.82,1,3.63,3.63,0,0,0,2.41-.41,6.38,6.38,0,0,0,1-.63,34.71,34.71,0,0,1,2.07,3.67h0a25.2,25.2,0,0,1,4.6-.18,9.49,9.49,0,0,0,3.52-.61q-1.55-2.26-3.29-4.38l0,0a6.83,6.83,0,0,1-1.27-2.06,8.73,8.73,0,0,1-.46-1.53,9.71,9.71,0,0,1-4.94-1.68,2.29,2.29,0,0,0,.49-1.13,2,2,0,0,0-.68-1.84,1.76,1.76,0,0,0-1.91-.24,1.58,1.58,0,0,0-.82,1.49,5.24,5.24,0,0,0-2.75-1.34,26.16,26.16,0,0,0-3,.39,3.77,3.77,0,0,1-2-.48,8.7,8.7,0,0,0,.5,3.82A9.78,9.78,0,0,1,214.05,203.09Z"></path><path class="cls-23" d="M218.46,220.09c0,.06-.05.12-.07.17a39.79,39.79,0,0,0,7.35,4.92c.3-.54.6-1.07.89-1.61C223.87,222.5,220.81,221.27,218.46,220.09Z"></path><path class="cls-47" d="M223.82,189.57a8.16,8.16,0,0,0,4.24-2.37,4,4,0,0,0-.09-5,5.84,5.84,0,0,0-5.24-1.91,5.16,5.16,0,0,0-2.34.91,3.16,3.16,0,0,0-1.26,1.95,8.82,8.82,0,0,0,1.1,5.29,8.12,8.12,0,0,0-6.29,3.51,8.54,8.54,0,0,0-1.39,4,3.77,3.77,0,0,0,2,.48,26.16,26.16,0,0,1,3-.39,5.24,5.24,0,0,1,2.75,1.34,1.58,1.58,0,0,1,.82-1.49,1.76,1.76,0,0,1,1.91.24,2,2,0,0,1,.68,1.84,2.29,2.29,0,0,1-.49,1.13,9.71,9.71,0,0,0,4.94,1.68c-.11-.52-.19-1.06-.25-1.6a32.18,32.18,0,0,0-.5-4.61A8.66,8.66,0,0,0,223.82,189.57Z"></path><path class="cls-48" d="M225.15,239l.1,0V239A.19.19,0,0,1,225.15,239Z"></path><path class="cls-18" d="M225.25,239V239a118,118,0,0,0,18.24,5.47,33.83,33.83,0,0,0,.3-6,102.18,102.18,0,0,1-18.51-.23C225.27,238.53,225.26,238.74,225.25,239Z"></path><path class="cls-49" d="M225.74,225.18a41.67,41.67,0,0,1-2.71,4.15,8.91,8.91,0,0,1,1.77,3.11c.06.19.12.39.17.59a11.76,11.76,0,0,0,4.72-4.4c1.47-2.43,3.29-7.74,1.3-9.58s-3.29,4.94-4.36,4.52C226.34,224.11,226,224.64,225.74,225.18Z"></path><path class="cls-40" d="M214.89,195.45a4.19,4.19,0,0,1,.53,3.79"></path><path class="cls-47" d="M213.6,193.91c-4.12,1.26-1.93,5.47-.63,6.94a13.28,13.28,0,0,0,2.68-2.83C216.15,197,213.6,193.91,213.6,193.91Z"></path><path class="cls-2" d="M229.72,209.46a25.2,25.2,0,0,0-4.6.18h0c-2.22,1-4.49,5.49-6.65,10.45,2.35,1.18,5.6,2,8.17,3.48.33.19-.93-.37,0,0,.86-1.1,3-2.27,3.81-4.13a10.72,10.72,0,0,1-.75,9.19A11.76,11.76,0,0,1,225,233a28,28,0,0,1,.23,5.65c0,.25-16.26,3.79-16.27,4,.36,3.26,1.37,13,3.33,17.74,8.17,4.37,30.47-1.25,31.54-9.18,2-16.79-3.09-36.37-10.56-42.41A9.49,9.49,0,0,1,229.72,209.46Z"></path><path class="cls-2" d="M219.39,218l-4.86,11.2-12.68,8.88,2.23,3.71s16.45-5.38,18-7.52,8.35-14.83,8.35-14.83Z"></path><rect class="cls-2" x="631.15" y="154.05" width="30.31" height="4.87" transform="translate(1292.62 312.97) rotate(180)"></rect><polygon class="cls-2" points="661.51 168.57 661.51 173.9 633.69 173.9 633.17 173.29 633.26 168.83 633.97 168.41 661.51 168.57"></polygon><path class="cls-50" d="M639.28,181.53h23.54a4.13,4.13,0,0,1,4.12,4.12h0a4.13,4.13,0,0,1-4.12,4.13H639.17S639.4,181.53,639.28,181.53Z"></path><path class="cls-51" d="M663.58,181.66a4,4,0,0,1,3.51,4.05h0a4.08,4.08,0,0,1-2.76,3.88,8.63,8.63,0,0,0,1.08-3.73A6.23,6.23,0,0,0,663.58,181.66Z"></path><rect class="cls-2" x="631.69" y="190.49" width="32.28" height="6.61" transform="translate(1295.65 387.59) rotate(180)"></rect><rect class="cls-20" x="631.01" y="190.09" width="33.86" height="1.05" transform="translate(1295.88 381.23) rotate(180)"></rect><rect class="cls-20" x="631.01" y="196.48" width="33.86" height="1.05" transform="translate(1295.88 394.02) rotate(180)"></rect><path class="cls-52" d="M638.43,190.11h24.43a4.44,4.44,0,0,0,0-8.88l-24.22-.08h0a.42.42,0,0,0-.42.43.41.41,0,0,0,.42.42l24.21.08a3.59,3.59,0,0,1,0,7.18H638.43a.43.43,0,1,0,0,.85Z"></path><rect class="cls-25" x="637.04" y="174.2" width="28.91" height="6.97" transform="translate(1302.99 355.37) rotate(180)"></rect><rect class="cls-53" x="659.44" y="174.17" width="2.38" height="6.96" transform="translate(1321.26 355.3) rotate(180)"></rect><rect class="cls-53" x="655.05" y="174.2" width="2.38" height="6.96" transform="translate(1312.48 355.37) rotate(180)"></rect><circle class="cls-2" cx="642.41" cy="177.8" r="2.5"></circle><path class="cls-20" d="M634,174.21H662v-.66H634a.42.42,0,0,1-.42-.43v-4a.42.42,0,0,1,.42-.43H662v-.66H634a1.09,1.09,0,0,0-1.08,1.09v4A1.09,1.09,0,0,0,634,174.21Z"></path><rect class="cls-54" x="637.52" y="164.2" width="29.05" height="4.02" transform="translate(1304.1 332.42) rotate(180)"></rect><rect class="cls-55" x="642.93" y="166.06" width="20.29" height="0.37" transform="translate(1306.15 332.48) rotate(180)"></rect><rect class="cls-55" x="641.61" y="164.22" width="0.44" height="3.99" transform="translate(1283.66 332.43) rotate(180)"></rect><rect class="cls-55" x="640.4" y="164.26" width="0.44" height="3.99" transform="translate(1281.25 332.5) rotate(180)"></rect><rect class="cls-20" x="634.27" y="159.24" width="29.43" height="4.96" transform="translate(1297.97 323.44) rotate(180)"></rect><rect class="cls-56" x="658.83" y="159.16" width="1.69" height="5.04" transform="translate(1319.36 323.37) rotate(180)"></rect><rect class="cls-56" x="636.63" y="160.9" width="20.6" height="0.85" transform="translate(1293.87 322.64) rotate(180)"></rect><path class="cls-25" d="M631.08,154.54h30.56a.41.41,0,0,0,.41-.41h0a.4.4,0,0,0-.41-.4H631.08a.4.4,0,0,0-.41.4h0A.41.41,0,0,0,631.08,154.54Z"></path><path class="cls-25" d="M631.08,159.15h30.56a.4.4,0,0,0,.41-.4h0a.41.41,0,0,0-.41-.41H631.08a.41.41,0,0,0-.41.41h0A.4.4,0,0,0,631.08,159.15Z"></path><g class="cls-57"><polygon class="cls-58" points="657.97 158.94 658.79 158.17 659.56 158.94 659.56 155.91 657.97 155.91 657.97 158.94"></polygon></g><rect class="cls-59" x="632.19" y="155.53" width="27.97" height="0.17"></rect><rect class="cls-59" x="637.6" y="156.22" width="18.72" height="0.17"></rect><rect class="cls-59" x="632.79" y="157.12" width="16.91" height="0.17"></rect><polygon class="cls-41" points="657.84 158.59 658.8 158.1 659.65 158.59 659.65 155.57 657.84 155.57 657.84 158.59"></polygon><polygon class="cls-41" points="634.66 177.2 635.39 176.84 636.07 177.2 636.07 170.98 634.66 170.98 634.66 177.2"></polygon><rect class="cls-59" x="635.01" y="169.97" width="25.49" height="0.17"></rect><rect class="cls-59" x="634.42" y="170.77" width="24.85" height="0.17"></rect><rect class="cls-59" x="654.7" y="171.62" width="5.27" height="0.17"></rect><rect class="cls-59" x="636.87" y="172.31" width="21.55" height="0.17"></rect><rect class="cls-59" x="640.45" y="184.67" width="22.4" height="0.17"></rect><rect class="cls-59" x="642.49" y="186.67" width="17.37" height="0.17"></rect><rect class="cls-59" x="650.35" y="187.54" width="7.97" height="0.17"></rect><rect class="cls-59" x="641.82" y="183.63" width="17.01" height="0.17"></rect><g class="cls-60"><path class="cls-58" d="M660.56,185.27l.41.41a1.2,1.2,0,0,1,.36.85l0,2.77-1-.45-1.41.59v-2.87a3,3,0,0,0-.33-1.72Z"></path></g><path class="cls-25" d="M660.8,184.76l.42.41a1.25,1.25,0,0,1,.35.86v2.73l-1.13-.37-1.19.37,0-2.7a1.2,1.2,0,0,0-.22-.69l-.43-.62Z"></path><rect class="cls-59" x="634.54" y="192.05" width="27.76" height="0.17"></rect><rect class="cls-59" x="634.26" y="193.19" width="21.31" height="0.17"></rect><rect class="cls-59" x="647.44" y="194.29" width="15.94" height="0.17"></rect><rect class="cls-59" x="655.04" y="194.88" width="6.14" height="0.17"></rect><rect class="cls-59" x="635.4" y="195.55" width="25.18" height="0.17"></rect><g class="cls-57"><polygon class="cls-58" points="634.43 197.13 635.43 196.53 636.38 197.13 636.38 193.62 634.43 193.62 634.43 197.13"></polygon></g><polygon class="cls-41" points="634.26 196.79 635.47 196.33 636.5 196.79 636.5 193.28 634.26 193.28 634.26 196.79"></polygon><polygon class="cls-61" points="685.66 248.71 671.89 250.8 670.57 238.01 675.65 234.65 685.66 248.71"></polygon><path class="cls-62" d="M686.08,270.76c.82,1.33,1.65,2.69,2.38,3.9a77.2,77.2,0,0,1-9.72,8h-8.67a4.71,4.71,0,0,1,3.13-3.22,7.61,7.61,0,0,0,2.34-.73,4.23,4.23,0,0,0,1.27-1.95,11.7,11.7,0,0,0,.79-2.43,3.83,3.83,0,0,0-.22-2.17c2.31-1.45,4.66-2.82,7-4.13l1.37,2.23Z"></path><path class="cls-63" d="M684.43,268.06c-2.39,1.31-4.74,2.68-7,4.13a2.29,2.29,0,0,0-.29.18c-4-6.52-9.3-12.31-13.54-18.61L674.2,225l3.52-6.86,2.12-.55a257.22,257.22,0,0,1-7.27,27.92c4,7.32,7.69,15.13,11.92,22.52Z"></path><path class="cls-64" d="M682.9,164.07a2,2,0,0,1,1,1.63,2.23,2.23,0,0,1-.81,1.73,2.51,2.51,0,0,1-1.85.53h-.05a18.14,18.14,0,0,0,1.29,3.87,3.57,3.57,0,0,0-.91.72,3,3,0,0,0-.59,1.78l-5.75.68a4.67,4.67,0,0,0,0-2.5c-.45-.65-1.38-.72-2-1.15a3.06,3.06,0,0,1-1.23-2.47A27.27,27.27,0,0,1,672,166a1.74,1.74,0,0,0-.47-1.49c-.25-.2-.62-.28-.76-.57a.74.74,0,0,1,.29-.84,6.19,6.19,0,0,1,.84-.46,4.39,4.39,0,0,0,1.64-2.79,10.93,10.93,0,0,1,.55-1.44s0,0,0,0a2.83,2.83,0,0,0,1.35,1.14,2,2,0,0,0,1.73-.14,2.38,2.38,0,0,0,1.23,1.32,2.46,2.46,0,0,0,.89.2,4.11,4.11,0,0,1,.67,1.23c.14.58,0,1.19.05,1.79a.66.66,0,0,0,.42.6.51.51,0,0,0,.54-.23,1,1,0,0,0,.17-.35A1.81,1.81,0,0,1,682.9,164.07Z"></path><path class="cls-62" d="M682.43,171.82a18.14,18.14,0,0,1-1.29-3.87h.05a2.51,2.51,0,0,0,1.85-.53,2.23,2.23,0,0,0,.81-1.73,2,2,0,0,0-1-1.63,1.81,1.81,0,0,0-1.69,0,1,1,0,0,1-.17.35.51.51,0,0,1-.54.23.66.66,0,0,1-.42-.6c-.09-.6.09-1.21-.05-1.79a4.11,4.11,0,0,0-.67-1.23,2.46,2.46,0,0,1-.89-.2,2.38,2.38,0,0,1-1.23-1.32,2,2,0,0,1-1.73.14,2.83,2.83,0,0,1-1.35-1.14s0,0,0,0a3.43,3.43,0,0,1-.29-3,3.18,3.18,0,0,1,2.41-1.93,1.92,1.92,0,0,1,1.48-1.15,3.53,3.53,0,0,1,1.92.29c.61.25,1.17.61,1.75.9l.32.14,0,.07,2.15,1.16a14,14,0,0,1,3,2,7.9,7.9,0,0,1,2.12,7.71,9.78,9.78,0,0,1-4.64,5.89,10.69,10.69,0,0,1-1.53,1.17Z"></path><path class="cls-63" d="M674.2,225l-12.93,25.1-13.11,25.48-1.19-.26L640.9,274c8-22.48,15.74-45.15,22.58-68l8.59-.33a62.67,62.67,0,0,0,4.23,12.81l1.42-.38Z"></path><path class="cls-61" d="M675.43,188.62l.76-.59a17.81,17.81,0,0,1-5.52,6.18c0-.81,0-1.62,0-2.44A49.28,49.28,0,0,0,675.43,188.62Z"></path><path class="cls-65" d="M661.27,250.1,674.2,225l-10.65,28.76C662.75,252.56,662,251.35,661.27,250.1Z"></path><path class="cls-66" d="M667.32,193.59c1.12-.58,2.24-1.18,3.33-1.82,0,.82,0,1.63,0,2.44a64.54,64.54,0,0,0,1.4,11.5l-8.59.33Q665.64,199.89,667.32,193.59Z"></path><path class="cls-62" d="M640.89,274a0,0,0,0,0,0,0l6.07,1.29-2.91,6.59a153.33,153.33,0,0,1-16.14-4.28c.4-1.29,1.49-2.78,2.61-3.07a7.38,7.38,0,0,1,3.46.14,14.52,14.52,0,0,0,3.44.55A6.1,6.1,0,0,0,640.89,274Z"></path><path class="cls-64" d="M642.46,194.58c.29,1.32.62,2.63,1,3.93h0a18.63,18.63,0,0,1-10.44-.21,3.35,3.35,0,0,1-1.86-1.13.9.9,0,0,1,0-1.23,1.18,1.18,0,0,1,.49-.16l6.32-1v0l-1.2-.81c-.31-.22-.66-.51-.59-.89a.68.68,0,0,1,.63-.48,2.18,2.18,0,0,1,.82.19l4.81,1.84Z"></path><path class="cls-2" d="M682.06,180c-.75-3.33-1-2.44-.27-5.77v0l-.86.1-5.75.68-1.31.16a1.45,1.45,0,0,0-.73.22,1,1,0,0,0-.29,1.13,1.62,1.62,0,0,0,.25.51,37.41,37.41,0,0,0-1.39,3.7c-1.28,1.06-2.69,2.12-4.14,3.19-3.42,2.47-7.12,4.92-10.14,7.06q-7.48,1.82-15,3.6h0c.29,1.32.62,2.63,1,3.93,0,.22.12.44.18.66,6.06-.53,12-1.65,18-2.74,1.91-.93,3.83-1.84,5.72-2.84,1.12-.58,2.24-1.18,3.33-1.82a49.28,49.28,0,0,0,4.78-3.15l.76-.59a17.81,17.81,0,0,1-5.52,6.18,64.54,64.54,0,0,0,1.4,11.5,62.67,62.67,0,0,0,4.23,12.81l1.42-.38,2.12-.55c2-.52,4.1-1.05,6.14-1.59C682.84,205.91,683.64,187,682.06,180Z"></path><path class="cls-2" d="M670.67,194.21s-1.58,44.73,7.67,55.68l16.17-2.61S681.59,205.63,683,188Z"></path></g></svg> 