<?xml version="1.0" encoding="UTF-8"?> <svg xmlns="http://www.w3.org/2000/svg" viewBox="0 0 250 90"><path d="M57.71,88.36,107.46,30a4.05,4.05,0,0,0-3-6.7H4A4.05,4.05,0,0,0,1,30L51.74,88.39a3.93,3.93,0,0,0,6,0" style="fill:#9e2064"></path><path d="M54.06,89.73a3.06,3.06,0,0,0,1.38,0V67.42H54.06Z" style="fill:#f6cece"></path><path d="M55.44,0S31.21,29.26,31.21,42.89A24.88,24.88,0,0,0,36.27,58s7,9.6,19.17,9.6Z" style="fill:#f6cece"></path><path d="M55.44,0S79.66,29.26,79.66,42.89A24.88,24.88,0,0,1,74.6,58s-7,9.6-19.16,9.6Z" style="fill:#b5689d"></path><path d="M143.47,28.6a20.88,20.88,0,0,0-7.18-1.17c-3.66,0-6.31.62-7.93,1.86a6,6,0,0,0-2.44,5,5.78,5.78,0,0,0,1.9,4.7,12.13,12.13,0,0,0,6,2.07l6.78,1q6.9,1,10.57,4.35a11.67,11.67,0,0,1,3.59,9,13.61,13.61,0,0,1-1.22,5.73,13,13,0,0,1-3.59,4.43,18.39,18.39,0,0,1-6,2.9,27.46,27.46,0,0,1-8.34,1.1,34.92,34.92,0,0,1-9.62-1.24,23.18,23.18,0,0,1-8.27-4.15l3.25-5.59a27.13,27.13,0,0,0,7.46,3.73,25.78,25.78,0,0,0,7.72,1.1c3.93,0,6.92-.69,8.81-2.14a6.55,6.55,0,0,0,3-5.66,6.09,6.09,0,0,0-2-4.7Q144,49,139.4,48.36l-7.11-1c-4.27-.63-7.59-1.94-9.76-4s-3.39-5-3.39-8.78a13,13,0,0,1,1.22-5.73,12.1,12.1,0,0,1,3.53-4.15,16.62,16.62,0,0,1,5.42-2.55,26.82,26.82,0,0,1,6.91-.83,32.26,32.26,0,0,1,9.22,1.31,21.65,21.65,0,0,1,7.79,4.08l-3.53,5.11a19.84,19.84,0,0,0-6.23-3.18" style="fill:#9e2064"></path><path d="M182.44,48.43a12,12,0,0,0,8.2-2.69,9.41,9.41,0,0,0,3-7.4A9.94,9.94,0,0,0,190.84,31c-1.83-1.73-4.47-2.62-7.93-2.62H171v20.1Zm7.79-25.08a16,16,0,0,1,5.42,3.32,14.14,14.14,0,0,1,3.59,5,16,16,0,0,1,1.29,6.56,16.34,16.34,0,0,1-1.35,6.78,14.46,14.46,0,0,1-3.87,5.11,16.09,16.09,0,0,1-5.76,3.24,20.85,20.85,0,0,1-7,1.11H171v14h-7V22.25h19.32a22,22,0,0,1,6.91,1.1" style="fill:#9e2064"></path><path d="M250,63.15a23.56,23.56,0,0,1-8.2,4.69,30.62,30.62,0,0,1-10.16,1.66,27.19,27.19,0,0,1-9.76-1.66,22.15,22.15,0,0,1-7.59-4.76,23.1,23.1,0,0,1-4.88-7.53,28.83,28.83,0,0,1-1.7-10,25.8,25.8,0,0,1,1.7-9.47,22.2,22.2,0,0,1,4.88-7.73A21.47,21.47,0,0,1,222,23.21a25.82,25.82,0,0,1,10.37-1.93,27.46,27.46,0,0,1,8.88,1.45,23.08,23.08,0,0,1,7.66,4.35l-3.66,5.05a15.86,15.86,0,0,0-6-3.39A20.66,20.66,0,0,0,232,27.57a19.86,19.86,0,0,0-7.18,1.24,14.7,14.7,0,0,0-5.42,3.59,16.06,16.06,0,0,0-3.53,5.6,19.92,19.92,0,0,0-1.28,7.39,20.16,20.16,0,0,0,1.28,7.53A15.42,15.42,0,0,0,225,62a20,20,0,0,0,6.92,1.18A19.51,19.51,0,0,0,243.43,60V49.88l-10-.48V43.73H250Z" style="fill:#9e2064"></path></svg> 