<?xml version="1.0" encoding="UTF-8"?> <svg xmlns="http://www.w3.org/2000/svg" id="Layer_1" data-name="Layer 1" viewBox="0 0 130 210"><defs><style>.cls-1{fill:#9e2064;}.cls-2{fill:#f6cece;}.cls-3{fill:#b5689d;}</style></defs><path class="cls-1" d="M69.38,95.57l55.29-63.13a4.38,4.38,0,0,0-3.33-7.25H9.67a4.38,4.38,0,0,0-3.31,7.28L62.75,95.61a4.44,4.44,0,0,0,6.63,0"></path><path class="cls-2" d="M65.32,97a3.75,3.75,0,0,0,1.53,0V72.93H65.32Z"></path><path class="cls-2" d="M66.85,0S39.93,31.64,39.93,46.4a26.48,26.48,0,0,0,5.62,16.33s7.84,10.38,21.3,10.38Z"></path><path class="cls-3" d="M66.85,0S93.77,31.64,93.77,46.4a26.48,26.48,0,0,1-5.62,16.33s-7.84,10.38-21.3,10.38Z"></path><path class="cls-1" d="M25.44,113.13a21.08,21.08,0,0,0-7-1.12c-3.59,0-6.19.6-7.78,1.78a5.64,5.64,0,0,0-2.4,4.76A5.43,5.43,0,0,0,10.07,123a12,12,0,0,0,5.86,2l6.65.93q6.78,1,10.37,4.16a11,11,0,0,1,3.53,8.58,12.61,12.61,0,0,1-1.2,5.47,12.5,12.5,0,0,1-3.52,4.23,18.14,18.14,0,0,1-5.92,2.77,27.52,27.52,0,0,1-8.18,1.06A35.32,35.32,0,0,1,8.21,151a23.24,23.24,0,0,1-8.11-4l3.19-5.35a26.86,26.86,0,0,0,7.32,3.57,26.15,26.15,0,0,0,7.58,1.05c3.86,0,6.78-.66,8.65-2a6.25,6.25,0,0,0,2.92-5.42,5.73,5.73,0,0,0-1.93-4.48q-1.89-1.78-6.38-2.38l-7-1c-4.19-.59-7.45-1.85-9.57-3.83s-3.33-4.75-3.33-8.38a12.07,12.07,0,0,1,1.2-5.48,11.65,11.65,0,0,1,3.46-4,16.46,16.46,0,0,1,5.32-2.44,26.8,26.8,0,0,1,6.78-.79,32.51,32.51,0,0,1,9.05,1.25,21.48,21.48,0,0,1,7.65,3.9l-3.46,4.88a19.71,19.71,0,0,0-6.12-3"></path><path class="cls-1" d="M71.33,108.12a15.73,15.73,0,0,1,5.33,3.17,13.48,13.48,0,0,1,3.52,4.81,14.83,14.83,0,0,1,1.26,6.27,15.1,15.1,0,0,1-1.33,6.47,13.83,13.83,0,0,1-3.79,4.89,16.19,16.19,0,0,1-5.65,3.1,21.15,21.15,0,0,1-6.85,1H52.44v13.4H45.59V107.06h19a22.1,22.1,0,0,1,6.78,1.06m-7.64,24a11.84,11.84,0,0,0,8-2.58,8.82,8.82,0,0,0,2.93-7.06,9.33,9.33,0,0,0-2.73-7.06c-1.79-1.65-4.39-2.51-7.78-2.51H52.44v19.21Z"></path><path class="cls-1" d="M130,146.13a23.44,23.44,0,0,1-8,4.49,30.83,30.83,0,0,1-10,1.59,27.37,27.37,0,0,1-9.57-1.59,20.11,20.11,0,0,1-12.24-11.75,26.81,26.81,0,0,1-1.66-9.57,24,24,0,0,1,1.66-9A21.14,21.14,0,0,1,95,112.87a20.89,20.89,0,0,1,7.58-4.88,25.79,25.79,0,0,1,10.18-1.85,27.75,27.75,0,0,1,8.71,1.38,22.78,22.78,0,0,1,7.52,4.16l-3.6,4.82a15.56,15.56,0,0,0-5.92-3.23,20.52,20.52,0,0,0-7-1.13,20.05,20.05,0,0,0-7.05,1.19,14.61,14.61,0,0,0-5.32,3.43,15.19,15.19,0,0,0-3.46,5.35,18.64,18.64,0,0,0-1.26,7.06,18.91,18.91,0,0,0,1.26,7.2,15.1,15.1,0,0,0,3.53,5.34,15.51,15.51,0,0,0,5.39,3.37,20.12,20.12,0,0,0,6.78,1.12,19.57,19.57,0,0,0,11.31-3.1v-9.64l-9.78-.46v-5.41H130Z"></path><path class="cls-1" d="M8.65,164a6.23,6.23,0,0,0-2.16-.35,4,4,0,0,0-2.38.55,1.71,1.71,0,0,0-.73,1.45A1.67,1.67,0,0,0,4,167a3.65,3.65,0,0,0,1.79.6l2,.29A6,6,0,0,1,11,169.17,3.36,3.36,0,0,1,12,171.8a3.57,3.57,0,0,1-1.44,3,5.79,5.79,0,0,1-1.82.85,8.48,8.48,0,0,1-2.5.32,10.84,10.84,0,0,1-2.89-.36,7.21,7.21,0,0,1-2.49-1.22l1-1.63a8.25,8.25,0,0,0,2.24,1.09,8,8,0,0,0,2.32.32,4.45,4.45,0,0,0,2.65-.63,1.91,1.91,0,0,0,.9-1.65,1.78,1.78,0,0,0-.6-1.38,3.49,3.49,0,0,0-2-.72l-2.14-.31a5.31,5.31,0,0,1-2.93-1.17,3.22,3.22,0,0,1-1-2.57A3.6,3.6,0,0,1,1.71,164a3.55,3.55,0,0,1,1.06-1.22,4.91,4.91,0,0,1,1.63-.74,7.83,7.83,0,0,1,2.07-.25,9.66,9.66,0,0,1,2.77.39,6.4,6.4,0,0,1,2.34,1.19l-1.05,1.5A5.8,5.8,0,0,0,8.65,164"></path><path class="cls-1" d="M25.13,162.36a6.92,6.92,0,0,1,2.26,1.5,6.81,6.81,0,0,1,1.47,2.24,8,8,0,0,1,.51,2.79,7.07,7.07,0,0,1-2,5,7.15,7.15,0,0,1-2.28,1.49,7,7,0,0,1-2.91.57,7.34,7.34,0,0,1-2.92-.55A6.88,6.88,0,0,1,17,173.88a7.24,7.24,0,0,1-1.46-2.23,7.61,7.61,0,0,1-.51-2.76,7.3,7.3,0,0,1,.53-2.77A6.36,6.36,0,0,1,17,163.89a7,7,0,0,1,2.24-1.49,7.38,7.38,0,0,1,2.92-.57,8,8,0,0,1,2.93.53M20.06,164a4.33,4.33,0,0,0-1.61,1.11,4.93,4.93,0,0,0-1,1.65,6.56,6.56,0,0,0,0,4.17,5.5,5.5,0,0,0,1,1.66,4.89,4.89,0,0,0,1.59,1.11,5.63,5.63,0,0,0,2.14.4,5.86,5.86,0,0,0,2.13-.38A5,5,0,0,0,26,172.65,4.81,4.81,0,0,0,27,171a6.09,6.09,0,0,0,.35-2.08,5.88,5.88,0,0,0-.37-2.13,5,5,0,0,0-1-1.65A4.82,4.82,0,0,0,24.33,164a5.73,5.73,0,0,0-2.13-.39,5.3,5.3,0,0,0-2.14.41"></path><path class="cls-1" d="M40.08,163.67a5.93,5.93,0,0,0-2.16.37,4.36,4.36,0,0,0-1.63,1.05,4.55,4.55,0,0,0-1.06,1.63,6.26,6.26,0,0,0,0,4.35,4.69,4.69,0,0,0,1.08,1.64,5,5,0,0,0,1.65,1,5.6,5.6,0,0,0,2.06.36,6.84,6.84,0,0,0,2.42-.42,7.12,7.12,0,0,0,2-1.26l1.16,1.42a8,8,0,0,1-5.7,2.1,8.1,8.1,0,0,1-2.9-.49,6.45,6.45,0,0,1-2.28-1.39,6.66,6.66,0,0,1-1.46-2.2,8.18,8.18,0,0,1-.51-2.93,7.81,7.81,0,0,1,.51-2.79,6.58,6.58,0,0,1,1.5-2.25,6.7,6.7,0,0,1,2.35-1.51,8.52,8.52,0,0,1,3.13-.55,8.15,8.15,0,0,1,2.79.49,7,7,0,0,1,2.28,1.31l-1.08,1.46a6.28,6.28,0,0,0-4.17-1.42"></path><rect class="cls-1" x="49.2" y="162.12" width="2.1" height="13.54"></rect><polygon class="cls-1" points="65.52 163.91 57.74 163.91 57.74 167.74 64.58 167.74 64.58 169.51 57.74 169.51 57.74 173.84 65.88 173.84 65.88 175.66 55.7 175.66 55.7 162.12 65.52 162.12 65.52 163.91"></polygon><path class="cls-1" d="M77.61,162.6A6.77,6.77,0,0,1,79.88,164a6,6,0,0,1,1.44,2.14,6.88,6.88,0,0,1,.51,2.73,7.31,7.31,0,0,1-.51,2.72,6.85,6.85,0,0,1-1.49,2.15,7,7,0,0,1-2.3,1.39,8.12,8.12,0,0,1-3,.51H69.77V162.12H74.6a8.84,8.84,0,0,1,3,.48m-3.07,11.26a6.3,6.3,0,0,0,2.1-.35,4.75,4.75,0,0,0,1.65-1A4.37,4.37,0,0,0,79.37,171a5,5,0,0,0,.4-2.08,4.82,4.82,0,0,0-1.38-3.7,5.54,5.54,0,0,0-3.87-1.28H71.83v10Z"></path><path class="cls-1" d="M98.21,175.66H95.92l-1.22-3.07H87.8l-1.2,3.07H84.38l5.68-13.56h2.42ZM94,170.81l-2.63-6.63h-.24l-2.65,6.63Z"></path><path class="cls-1" d="M109.59,162.6a6.63,6.63,0,0,1,2.26,1.42,6.06,6.06,0,0,1,1.45,2.14,7.06,7.06,0,0,1,.5,2.73,7.52,7.52,0,0,1-.5,2.72,7,7,0,0,1-1.49,2.15,7.14,7.14,0,0,1-2.3,1.39,8.22,8.22,0,0,1-3,.51h-4.76V162.12h4.83a8.88,8.88,0,0,1,3,.48m-3.08,11.26a6.21,6.21,0,0,0,2.1-.35,4.75,4.75,0,0,0,1.65-1,4.13,4.13,0,0,0,1.08-1.55,4.89,4.89,0,0,0,.41-2.08,4.79,4.79,0,0,0-1.39-3.7,5.53,5.53,0,0,0-3.87-1.28h-2.68v10Z"></path><polygon class="cls-1" points="127.41 163.91 119.63 163.91 119.63 167.74 126.47 167.74 126.47 169.51 119.63 169.51 119.63 173.84 127.78 173.84 127.78 175.66 117.59 175.66 117.59 162.12 127.41 162.12 127.41 163.91"></polygon><path class="cls-1" d="M10.75,208.43a6.19,6.19,0,0,1-2.09,1.16,8.11,8.11,0,0,1-2.58.41,7.21,7.21,0,0,1-2.48-.41,5.67,5.67,0,0,1-1.93-1.18,5.67,5.67,0,0,1-1.24-1.86A7.16,7.16,0,0,1,0,204.07a6.24,6.24,0,0,1,.43-2.34,5.46,5.46,0,0,1,3.2-3.18,6.65,6.65,0,0,1,2.64-.48,7.22,7.22,0,0,1,2.26.36,5.87,5.87,0,0,1,1.94,1.08l-.93,1.24A4.13,4.13,0,0,0,8,199.92a5.28,5.28,0,0,0-1.83-.29,5.26,5.26,0,0,0-1.82.3,3.82,3.82,0,0,0-1.38.89,3.92,3.92,0,0,0-.9,1.39A4.83,4.83,0,0,0,1.76,204a5,5,0,0,0,.32,1.87A3.93,3.93,0,0,0,3,207.28a3.82,3.82,0,0,0,1.39.87,5.16,5.16,0,0,0,1.76.29,5.06,5.06,0,0,0,2.93-.8v-2.49L6.54,205v-1.41h4.21Z"></path><rect class="cls-1" x="14.12" y="198.31" width="1.77" height="11.45"></rect><polygon class="cls-1" points="29.71 209.76 27.99 209.76 21.31 201.08 21.31 209.76 19.62 209.76 19.62 198.31 21.19 198.31 28.04 207.21 28.04 198.31 29.71 198.31 29.71 209.76"></polygon><polygon class="cls-1" points="41.74 199.83 35.16 199.83 35.16 203.06 40.95 203.06 40.95 204.56 35.16 204.56 35.16 208.22 42.05 208.22 42.05 209.76 33.44 209.76 33.44 198.31 41.74 198.31 41.74 199.83"></polygon><path class="cls-1" d="M50.83,199.63a5.26,5.26,0,0,0-1.82.3,3.82,3.82,0,0,0-1.38.89,3.92,3.92,0,0,0-.9,1.39,4.83,4.83,0,0,0-.32,1.82,4.92,4.92,0,0,0,.32,1.85,3.84,3.84,0,0,0,.92,1.38,4,4,0,0,0,1.39.88,4.81,4.81,0,0,0,1.74.3,5.73,5.73,0,0,0,2-.35,5.91,5.91,0,0,0,1.7-1.06l1,1.19A6.72,6.72,0,0,1,50.69,210a7,7,0,0,1-2.44-.41,5.48,5.48,0,0,1-1.93-1.18,5.67,5.67,0,0,1-1.24-1.86,6.93,6.93,0,0,1-.43-2.48,6.59,6.59,0,0,1,.43-2.36,5.66,5.66,0,0,1,1.27-1.9,5.88,5.88,0,0,1,2-1.28,7.21,7.21,0,0,1,2.66-.46,7,7,0,0,1,2.36.41,6.16,6.16,0,0,1,1.93,1.11l-.92,1.23a5.31,5.31,0,0,0-3.53-1.19"></path><path class="cls-1" d="M66.23,198.51a5.91,5.91,0,0,1,1.91,1.27,5.64,5.64,0,0,1,1.24,1.9,6.55,6.55,0,0,1,.43,2.36,6,6,0,0,1-1.67,4.22,6,6,0,0,1-1.93,1.26,5.87,5.87,0,0,1-2.46.48,6.2,6.2,0,0,1-2.46-.46,5.87,5.87,0,0,1-1.93-1.28,6.21,6.21,0,0,1-1.24-1.88,6.52,6.52,0,0,1-.43-2.34,6.15,6.15,0,0,1,.45-2.35,5.43,5.43,0,0,1,1.25-1.88,6,6,0,0,1,1.9-1.26,6.07,6.07,0,0,1,2.46-.48,6.76,6.76,0,0,1,2.48.44m-4.29,1.42a3.84,3.84,0,0,0-1.36.94,4.22,4.22,0,0,0-.84,1.4,5.52,5.52,0,0,0,0,3.53,4.63,4.63,0,0,0,.86,1.4,4.15,4.15,0,0,0,1.34.94,4.78,4.78,0,0,0,1.81.34,4.87,4.87,0,0,0,1.81-.33,4.12,4.12,0,0,0,1.38-.94,4.07,4.07,0,0,0,.84-1.41,5.24,5.24,0,0,0,.3-1.76,5,5,0,0,0-.32-1.8,4.15,4.15,0,0,0-.84-1.4,4.29,4.29,0,0,0-1.36-.92,4.91,4.91,0,0,0-1.81-.33,4.67,4.67,0,0,0-1.81.34"></path><polygon class="cls-1" points="74.79 208.22 81.44 208.22 81.44 209.76 73.04 209.76 73.04 198.31 74.79 198.31 74.79 208.22"></polygon><path class="cls-1" d="M92.24,198.51a5.91,5.91,0,0,1,1.91,1.27,5.64,5.64,0,0,1,1.24,1.9,6.56,6.56,0,0,1,.44,2.36,6.06,6.06,0,0,1-1.68,4.22,6,6,0,0,1-1.92,1.26,6,6,0,0,1-2.47.48,6.2,6.2,0,0,1-2.46-.46,5.87,5.87,0,0,1-1.93-1.28,6.21,6.21,0,0,1-1.24-1.88A6.52,6.52,0,0,1,83.7,204a6.15,6.15,0,0,1,.45-2.35,5.43,5.43,0,0,1,1.25-1.88,6,6,0,0,1,1.9-1.26,6.07,6.07,0,0,1,2.46-.48,6.76,6.76,0,0,1,2.48.44M88,199.93a3.84,3.84,0,0,0-1.36.94,4.22,4.22,0,0,0-.84,1.4,5.52,5.52,0,0,0,0,3.53,4.63,4.63,0,0,0,.86,1.4,4.15,4.15,0,0,0,1.34.94,4.78,4.78,0,0,0,1.81.34,4.87,4.87,0,0,0,1.81-.33,4.12,4.12,0,0,0,1.38-.94,4.07,4.07,0,0,0,.84-1.41,5.35,5.35,0,0,0,0-3.56,4.35,4.35,0,0,0-.85-1.4,4.29,4.29,0,0,0-1.36-.92,4.91,4.91,0,0,0-1.81-.33,4.67,4.67,0,0,0-1.81.34"></path><path class="cls-1" d="M109.45,208.43a6.14,6.14,0,0,1-2.08,1.16,8.12,8.12,0,0,1-2.59.41,7.21,7.21,0,0,1-2.48-.41,5.77,5.77,0,0,1-1.93-1.18,5.83,5.83,0,0,1-1.24-1.86,7.16,7.16,0,0,1-.43-2.48,6.24,6.24,0,0,1,.43-2.34,5.44,5.44,0,0,1,3.21-3.18,6.6,6.6,0,0,1,2.63-.48,7.13,7.13,0,0,1,2.26.36,5.91,5.91,0,0,1,2,1.08l-.93,1.24a4.17,4.17,0,0,0-1.54-.83,5.79,5.79,0,0,0-3.65,0,3.87,3.87,0,0,0-2.27,2.28,4.65,4.65,0,0,0-.33,1.82,4.76,4.76,0,0,0,.33,1.87,3.78,3.78,0,0,0,.91,1.38,3.86,3.86,0,0,0,1.4.87,5.64,5.64,0,0,0,4.68-.51v-2.49l-2.53-.12v-1.41h4.2Z"></path><rect class="cls-1" x="112.83" y="198.31" width="1.77" height="11.45"></rect><path class="cls-1" d="M129.31,209.76h-1.93l-1-2.6h-5.84l-1,2.6h-1.87l4.8-11.47h2Zm-3.55-4.1-2.22-5.61h-.21l-2.23,5.61Z"></path><path class="cls-1" d="M6.36,182.62a3.11,3.11,0,0,1,1.1.66,2.75,2.75,0,0,1,.74,1,3.08,3.08,0,0,1,.26,1.3,3.19,3.19,0,0,1-.28,1.35,2.8,2.8,0,0,1-.78,1,3.38,3.38,0,0,1-1.18.65,4.36,4.36,0,0,1-1.42.22H2.43v2.78H1V182.4H5a4.53,4.53,0,0,1,1.41.22m-1.59,5a2.45,2.45,0,0,0,1.67-.54,1.82,1.82,0,0,0,.61-1.46,1.93,1.93,0,0,0-.57-1.47,2.31,2.31,0,0,0-1.61-.52H2.43v4Z"></path><path class="cls-1" d="M17.47,182.56a4.71,4.71,0,0,1,1.54,1,4.82,4.82,0,0,1,1,1.52,5.39,5.39,0,0,1,.35,1.9A4.81,4.81,0,0,1,19,190.38a5,5,0,0,1-3.53,1.4,4.94,4.94,0,0,1-2-.37,4.48,4.48,0,0,1-1.55-1,4.79,4.79,0,0,1-1-1.51,5.26,5.26,0,0,1-.34-1.87,4.88,4.88,0,0,1,.36-1.88,4.2,4.2,0,0,1,1-1.51,4.66,4.66,0,0,1,1.53-1,4.88,4.88,0,0,1,2-.38,5.47,5.47,0,0,1,2,.35M14,183.7a3,3,0,0,0-1.09.76,3.27,3.27,0,0,0-.68,1.12,4.47,4.47,0,0,0,0,2.83,3.64,3.64,0,0,0,.69,1.12,3.2,3.2,0,0,0,1.08.76,3.75,3.75,0,0,0,1.45.27,3.83,3.83,0,0,0,1.45-.26,3.06,3.06,0,0,0,1.79-1.89A4.3,4.3,0,0,0,19,187a3.89,3.89,0,0,0-.25-1.44,3.39,3.39,0,0,0-.67-1.13,3.6,3.6,0,0,0-1.1-.74,4.12,4.12,0,0,0-1.45-.26,3.86,3.86,0,0,0-1.45.27"></path><path class="cls-1" d="M28.32,182.62a3.3,3.3,0,0,1,1.1.63,2.8,2.8,0,0,1,.7,1,2.92,2.92,0,0,1,.25,1.24,2.6,2.6,0,0,1-.58,1.71,3.21,3.21,0,0,1-1.54,1l2.42,3.4H29l-2.07-3.07H24.36v3.07H22.93V182.4h4a4.14,4.14,0,0,1,1.39.22m-1.55,4.69a2.45,2.45,0,0,0,1.6-.49,1.72,1.72,0,0,0,.58-1.37,1.67,1.67,0,0,0-.58-1.38,2.39,2.39,0,0,0-1.54-.46H24.36v3.7Z"></path><polygon class="cls-1" points="40.27 183.63 36.87 183.63 36.87 191.59 35.47 191.59 35.47 183.63 32.07 183.63 32.07 182.4 40.27 182.4 40.27 183.63"></polygon><path class="cls-1" d="M44.19,187.39a3.62,3.62,0,0,0,.67,2.35,2.39,2.39,0,0,0,2,.82,2.45,2.45,0,0,0,2-.77,3.39,3.39,0,0,0,.69-2.37v-5H50.9v5a6,6,0,0,1-.26,1.8,3.69,3.69,0,0,1-.77,1.37,3.41,3.41,0,0,1-1.27.88,5,5,0,0,1-1.77.3,4.56,4.56,0,0,1-1.75-.3,3.73,3.73,0,0,1-1.27-.85,3.79,3.79,0,0,1-.78-1.36,5.53,5.53,0,0,1-.26-1.79V182.4h1.42Z"></path><path class="cls-1" d="M62.1,190.52a4.84,4.84,0,0,1-1.68.93,6.41,6.41,0,0,1-2.07.33,5.69,5.69,0,0,1-2-.33,4.51,4.51,0,0,1-1.55-.94,4.69,4.69,0,0,1-1-1.5,5.65,5.65,0,0,1-.34-2,5.1,5.1,0,0,1,.34-1.88,4.51,4.51,0,0,1,1-1.53,4.4,4.4,0,0,1,1.58-1,5.33,5.33,0,0,1,2.11-.38,5.53,5.53,0,0,1,1.81.29,4.66,4.66,0,0,1,1.56.86l-.74,1a3.34,3.34,0,0,0-1.23-.67,4.48,4.48,0,0,0-1.47-.23,4.22,4.22,0,0,0-1.46.24,3,3,0,0,0-1.11.72,3.09,3.09,0,0,0-.72,1.11,4.34,4.34,0,0,0,0,3A3.17,3.17,0,0,0,57,190.3a4.21,4.21,0,0,0,1.41.23,4.07,4.07,0,0,0,2.35-.64v-2l-2-.1v-1.12H62.1Z"></path><path class="cls-1" d="M66.23,187.39a3.67,3.67,0,0,0,.66,2.35,2.42,2.42,0,0,0,2,.82,2.47,2.47,0,0,0,1.95-.77,3.39,3.39,0,0,0,.69-2.37v-5h1.42v5a5.72,5.72,0,0,1-.26,1.8,3.67,3.67,0,0,1-.76,1.37,3.41,3.41,0,0,1-1.27.88,5,5,0,0,1-1.77.3,4.61,4.61,0,0,1-1.76-.3,3.83,3.83,0,0,1-1.27-.85,3.92,3.92,0,0,1-.77-1.36,5.52,5.52,0,0,1-.27-1.79V182.4h1.43Z"></path><polygon class="cls-1" points="82.58 183.62 77.3 183.62 77.3 186.21 81.95 186.21 81.95 187.42 77.3 187.42 77.3 190.36 82.83 190.36 82.83 191.59 75.92 191.59 75.92 182.4 82.58 182.4 82.58 183.62"></polygon><path class="cls-1" d="M90.17,183.66a4.46,4.46,0,0,0-1.46-.23,2.73,2.73,0,0,0-1.62.37,1.19,1.19,0,0,0-.5,1,1.14,1.14,0,0,0,.39.93,2.54,2.54,0,0,0,1.21.41l1.39.19a4.06,4.06,0,0,1,2.15.87,2.27,2.27,0,0,1,.74,1.78,2.75,2.75,0,0,1-.25,1.14,2.68,2.68,0,0,1-.74.88,3.69,3.69,0,0,1-1.23.57,5.75,5.75,0,0,1-1.7.22,7.57,7.57,0,0,1-2-.24,5,5,0,0,1-1.69-.83l.67-1.11a5.32,5.32,0,0,0,1.52.74,5.42,5.42,0,0,0,1.57.22,3,3,0,0,0,1.8-.42,1.29,1.29,0,0,0,.61-1.13,1.2,1.2,0,0,0-.4-.93,2.36,2.36,0,0,0-1.33-.49l-1.45-.21a3.54,3.54,0,0,1-2-.8,2.16,2.16,0,0,1-.69-1.74,2.48,2.48,0,0,1,.25-1.14,2.36,2.36,0,0,1,.72-.82,3.5,3.5,0,0,1,1.1-.51,5.63,5.63,0,0,1,1.41-.16,6.67,6.67,0,0,1,1.88.26,4.43,4.43,0,0,1,1.59.81l-.72,1a4.19,4.19,0,0,0-1.27-.63"></path><path class="cls-1" d="M103.87,191.59h-1.55l-.83-2.08H96.81L96,191.59H94.48l3.86-9.2H100ZM101,188.3l-1.78-4.5h-.17l-1.79,4.5Z"></path><path class="cls-1" d="M116.44,182.73a4.62,4.62,0,0,1,1.53,1,4,4,0,0,1,1,1.45,4.64,4.64,0,0,1,.35,1.86,5.12,5.12,0,0,1-.35,1.85,4.61,4.61,0,0,1-1,1.45,4.87,4.87,0,0,1-1.56.95,5.69,5.69,0,0,1-2,.34h-3.24V182.4h3.28a6,6,0,0,1,2,.33m-2.09,7.64a4.36,4.36,0,0,0,1.42-.23,3.18,3.18,0,0,0,1.12-.68,2.82,2.82,0,0,0,.74-1.05,3.41,3.41,0,0,0,.27-1.41,3.25,3.25,0,0,0-.94-2.51,3.72,3.72,0,0,0-2.62-.87h-1.83v6.75Z"></path><polygon class="cls-1" points="128.53 183.62 123.25 183.62 123.25 186.21 127.9 186.21 127.9 187.42 123.25 187.42 123.25 190.36 128.78 190.36 128.78 191.59 121.87 191.59 121.87 182.4 128.53 182.4 128.53 183.62"></polygon></svg> 